<svg width="1440" height="1024" viewBox="0 0 1440 1024" fill="none" xmlns="http://www.w3.org/2000/svg">
<rect width="1440" height="1024" fill="#161310"/>
<circle cx="137" cy="118" r="49.5" fill="url(#paint0_linear_218_2)" stroke="#D06416"/>
<circle cx="1261" cy="609" r="39.5" fill="url(#paint1_linear_218_2)" stroke="#E97929"/>
<circle cx="1214" cy="366" r="19.5" stroke="#B2504A"/>
<circle cx="646" cy="739" r="34.5" fill="url(#paint2_linear_218_2)" stroke="#D05E0B"/>
<circle cx="124.5" cy="852.5" r="7" stroke="#D05E0B"/>
<circle cx="990.5" cy="125.5" r="7" stroke="#D05E0B"/>
<circle cx="368.5" cy="378.5" r="7" stroke="#D05E0B"/>
<circle cx="64.5" cy="695.5" r="12" stroke="#D05E0B"/>
<circle cx="1294.5" cy="263.5" r="12" stroke="#D05E0B"/>
<circle cx="64.5" cy="695.5" r="12" stroke="#D05E0B"/>
<circle cx="883" cy="885" r="4.5" stroke="#D05E0B"/>
<circle cx="416" cy="421" r="4.5" stroke="#D05E0B"/>
<circle cx="825" cy="722" r="4.5" stroke="#D05E0B"/>
<circle cx="1151" cy="99" r="9.5" stroke="#DA803F"/>
<circle cx="1156" cy="764" r="24.5" stroke="#9E6A45"/>
<defs>
<linearGradient id="paint0_linear_218_2" x1="137" y1="68" x2="137" y2="168" gradientUnits="userSpaceOnUse">
<stop/>
<stop offset="1" stop-color="#763200"/>
</linearGradient>
<linearGradient id="paint1_linear_218_2" x1="1326" y1="683" x2="1261" y2="580" gradientUnits="userSpaceOnUse">
<stop stop-color="#EF6704"/>
<stop offset="1" stop-color="#330000"/>
</linearGradient>
<linearGradient id="paint2_linear_218_2" x1="646" y1="704" x2="646" y2="774" gradientUnits="userSpaceOnUse">
<stop stop-color="#D05E0B"/>
<stop offset="1" stop-color="#D05E0B" stop-opacity="0"/>
</linearGradient>
</defs>
</svg>
