<svg width="1440" height="1024" viewBox="0 0 1440 1024" fill="none" xmlns="http://www.w3.org/2000/svg">
<rect width="1440" height="1024" fill="#161310"/>
<circle cx="137" cy="118" r="49.5" fill="url(#paint0_linear_218_2)" stroke="#D06416"/>
<circle cx="1261" cy="609" r="39.5" fill="url(#paint1_linear_218_2)" stroke="#E97929"/>
<circle cx="1214" cy="366" r="19.5" stroke="#B2504A"/>
<circle cx="646" cy="739" r="34.5" fill="url(#paint2_linear_218_2)" stroke="#D05E0B"/>
<circle cx="124.5" cy="852.5" r="7" stroke="#D05E0B"/>
<circle cx="990.5" cy="125.5" r="7" stroke="#D05E0B"/>
<circle cx="368.5" cy="378.5" r="7" stroke="#D05E0B"/>
<circle cx="64.5" cy="695.5" r="12" stroke="#D05E0B"/>
<circle cx="1294.5" cy="263.5" r="12" stroke="#D05E0B"/>
<circle cx="64.5" cy="695.5" r="12" stroke="#D05E0B"/>
<circle cx="883" cy="885" r="4.5" stroke="#D05E0B"/>
<circle cx="416" cy="421" r="4.5" stroke="#D05E0B"/>
<circle cx="825" cy="722" r="4.5" stroke="#D05E0B"/>
<circle cx="1151" cy="99" r="9.5" stroke="#DA803F"/>
<circle cx="1156" cy="764" r="24.5" stroke="#9E6A45"/>
<rect x="536.25" y="207.25" width="385.5" height="368.5" rx="3.75" fill="#120F0C" stroke="#FF9950" stroke-width="0.5"/>
<rect x="757.25" y="549.25" width="84.5" height="17.5" rx="3.75" stroke="#D05E0B" stroke-width="0.5"/>
<path d="M770.992 561.132C770.479 561.132 770.009 561.037 769.584 560.846C769.159 560.648 768.785 560.384 768.462 560.054L768.979 559.46C769.236 559.731 769.54 559.944 769.892 560.098C770.251 560.252 770.622 560.329 771.003 560.329C771.48 560.329 771.85 560.223 772.114 560.01C772.378 559.79 772.51 559.504 772.51 559.152C772.51 558.903 772.455 558.705 772.345 558.558C772.242 558.411 772.099 558.287 771.916 558.184C771.74 558.081 771.538 557.979 771.311 557.876L770.277 557.425C770.042 557.322 769.811 557.194 769.584 557.04C769.364 556.886 769.181 556.692 769.034 556.457C768.887 556.215 768.814 555.918 768.814 555.566C768.814 555.199 768.909 554.873 769.1 554.587C769.298 554.294 769.566 554.066 769.903 553.905C770.248 553.736 770.64 553.652 771.08 553.652C771.52 553.652 771.923 553.733 772.29 553.894C772.657 554.055 772.965 554.264 773.214 554.521L772.719 555.115C772.492 554.917 772.242 554.759 771.971 554.642C771.7 554.517 771.403 554.455 771.08 554.455C770.677 554.455 770.35 554.55 770.101 554.741C769.859 554.932 769.738 555.188 769.738 555.511C769.738 555.738 769.797 555.925 769.914 556.072C770.031 556.219 770.182 556.34 770.365 556.435C770.556 556.53 770.746 556.622 770.937 556.71L771.96 557.15C772.246 557.275 772.499 557.418 772.719 557.579C772.946 557.74 773.122 557.942 773.247 558.184C773.379 558.426 773.445 558.723 773.445 559.075C773.445 559.456 773.346 559.805 773.148 560.12C772.957 560.428 772.675 560.674 772.301 560.857C771.934 561.04 771.498 561.132 770.992 561.132ZM774.833 561V555.654H775.735V561H774.833ZM775.284 554.554C775.108 554.554 774.961 554.499 774.844 554.389C774.734 554.279 774.679 554.136 774.679 553.96C774.679 553.784 774.734 553.641 774.844 553.531C774.961 553.421 775.108 553.366 775.284 553.366C775.46 553.366 775.603 553.421 775.713 553.531C775.83 553.641 775.889 553.784 775.889 553.96C775.889 554.136 775.83 554.279 775.713 554.389C775.603 554.499 775.46 554.554 775.284 554.554ZM779.399 563.464C778.966 563.464 778.581 563.405 778.244 563.288C777.914 563.178 777.654 563.017 777.463 562.804C777.28 562.591 777.188 562.331 777.188 562.023C777.188 561.796 777.258 561.576 777.397 561.363C777.536 561.158 777.727 560.974 777.969 560.813V560.769C777.837 560.681 777.723 560.567 777.628 560.428C777.54 560.281 777.496 560.105 777.496 559.9C777.496 559.673 777.558 559.475 777.683 559.306C777.815 559.137 777.947 559.005 778.079 558.91V558.866C777.91 558.719 777.753 558.521 777.606 558.272C777.459 558.023 777.386 557.74 777.386 557.425C777.386 557.036 777.478 556.699 777.661 556.413C777.852 556.127 778.097 555.907 778.398 555.753C778.706 555.599 779.04 555.522 779.399 555.522C779.546 555.522 779.685 555.537 779.817 555.566C779.949 555.588 780.063 555.617 780.158 555.654H782.017V556.347H780.906V556.391C781.038 556.508 781.144 556.655 781.225 556.831C781.313 557.007 781.357 557.216 781.357 557.458C781.357 557.839 781.269 558.169 781.093 558.448C780.917 558.719 780.682 558.932 780.389 559.086C780.096 559.233 779.766 559.306 779.399 559.306C779.267 559.306 779.131 559.291 778.992 559.262C778.853 559.225 778.721 559.178 778.596 559.119C778.508 559.2 778.427 559.288 778.354 559.383C778.288 559.478 778.255 559.603 778.255 559.757C778.255 559.926 778.321 560.065 778.453 560.175C778.592 560.285 778.842 560.34 779.201 560.34H780.235C780.858 560.34 781.324 560.443 781.632 560.648C781.947 560.846 782.105 561.169 782.105 561.616C782.105 561.946 781.995 562.25 781.775 562.529C781.555 562.808 781.24 563.031 780.829 563.2C780.426 563.376 779.949 563.464 779.399 563.464ZM779.399 558.701C779.604 558.701 779.791 558.65 779.96 558.547C780.136 558.437 780.275 558.287 780.378 558.096C780.481 557.905 780.532 557.682 780.532 557.425C780.532 557.029 780.422 556.725 780.202 556.512C779.982 556.292 779.714 556.182 779.399 556.182C779.084 556.182 778.816 556.292 778.596 556.512C778.376 556.725 778.266 557.029 778.266 557.425C778.266 557.682 778.317 557.905 778.42 558.096C778.523 558.287 778.658 558.437 778.827 558.547C779.003 558.65 779.194 558.701 779.399 558.701ZM779.531 562.837C779.868 562.837 780.162 562.786 780.411 562.683C780.668 562.58 780.866 562.445 781.005 562.276C781.152 562.107 781.225 561.931 781.225 561.748C781.225 561.499 781.13 561.326 780.939 561.231C780.756 561.136 780.492 561.088 780.147 561.088H779.223C779.12 561.088 779.007 561.081 778.882 561.066C778.765 561.051 778.647 561.029 778.53 561C778.332 561.139 778.189 561.286 778.101 561.44C778.02 561.594 777.98 561.748 777.98 561.902C777.98 562.188 778.116 562.415 778.387 562.584C778.666 562.753 779.047 562.837 779.531 562.837ZM783.193 561V555.654H783.941L784.018 556.424H784.051C784.308 556.167 784.579 555.955 784.865 555.786C785.151 555.61 785.477 555.522 785.844 555.522C786.409 555.522 786.819 555.702 787.076 556.061C787.34 556.413 787.472 556.93 787.472 557.612V561H786.57V557.733C786.57 557.227 786.489 556.864 786.328 556.644C786.174 556.417 785.917 556.303 785.558 556.303C785.287 556.303 785.041 556.373 784.821 556.512C784.608 556.651 784.366 556.857 784.095 557.128V561H783.193ZM793.083 561.132C792.518 561.132 792.104 560.956 791.84 560.604C791.583 560.245 791.455 559.724 791.455 559.042V555.654H792.357V558.921C792.357 559.42 792.434 559.783 792.588 560.01C792.749 560.23 793.006 560.34 793.358 560.34C793.629 560.34 793.871 560.27 794.084 560.131C794.304 559.984 794.542 559.757 794.799 559.449V555.654H795.701V561H794.953L794.876 560.164H794.843C794.601 560.457 794.337 560.692 794.051 560.868C793.772 561.044 793.449 561.132 793.083 561.132ZM797.559 563.255V555.654H798.307L798.384 556.27H798.417C798.659 556.065 798.927 555.889 799.22 555.742C799.513 555.595 799.814 555.522 800.122 555.522C800.577 555.522 800.962 555.636 801.277 555.863C801.592 556.083 801.831 556.398 801.992 556.809C802.153 557.212 802.234 557.693 802.234 558.25C802.234 558.851 802.124 559.368 801.904 559.801C801.691 560.234 801.409 560.564 801.057 560.791C800.705 561.018 800.327 561.132 799.924 561.132C799.682 561.132 799.436 561.077 799.187 560.967C798.938 560.857 798.688 560.707 798.439 560.516L798.461 561.451V563.255H797.559ZM799.77 560.373C800.063 560.373 800.324 560.289 800.551 560.12C800.786 559.951 800.969 559.709 801.101 559.394C801.233 559.071 801.299 558.69 801.299 558.25C801.299 557.861 801.251 557.52 801.156 557.227C801.061 556.926 800.91 556.695 800.705 556.534C800.5 556.365 800.228 556.281 799.891 556.281C799.671 556.281 799.444 556.343 799.209 556.468C798.974 556.585 798.725 556.765 798.461 557.007V559.812C798.71 560.017 798.945 560.164 799.165 560.252C799.392 560.333 799.594 560.373 799.77 560.373ZM805.973 561V553.168H806.875V555.302L806.842 556.402C807.099 556.16 807.366 555.955 807.645 555.786C807.931 555.61 808.257 555.522 808.624 555.522C809.189 555.522 809.599 555.702 809.856 556.061C810.12 556.413 810.252 556.93 810.252 557.612V561H809.35V557.733C809.35 557.227 809.269 556.864 809.108 556.644C808.954 556.417 808.697 556.303 808.338 556.303C808.067 556.303 807.821 556.373 807.601 556.512C807.388 556.651 807.146 556.857 806.875 557.128V561H805.973ZM814.178 561.132C813.702 561.132 813.265 561.022 812.869 560.802C812.481 560.575 812.173 560.256 811.945 559.845C811.718 559.427 811.604 558.921 811.604 558.327C811.604 557.748 811.722 557.249 811.956 556.831C812.191 556.413 812.492 556.09 812.858 555.863C813.225 555.636 813.614 555.522 814.024 555.522C814.479 555.522 814.864 555.628 815.179 555.841C815.502 556.046 815.744 556.336 815.905 556.71C816.067 557.084 816.147 557.524 816.147 558.03C816.147 558.125 816.144 558.217 816.136 558.305C816.136 558.393 816.125 558.481 816.103 558.569H812.253V557.854H815.333C815.333 557.341 815.22 556.948 814.992 556.677C814.772 556.398 814.453 556.259 814.035 556.259C813.793 556.259 813.555 556.329 813.32 556.468C813.086 556.6 812.891 556.816 812.737 557.117C812.591 557.418 812.517 557.817 812.517 558.316C812.517 558.771 812.594 559.152 812.748 559.46C812.91 559.768 813.126 560.003 813.397 560.164C813.669 560.318 813.966 560.395 814.288 560.395C814.545 560.395 814.783 560.358 815.003 560.285C815.231 560.212 815.436 560.113 815.619 559.988L815.949 560.582C815.715 560.743 815.451 560.875 815.157 560.978C814.871 561.081 814.545 561.132 814.178 561.132ZM817.523 561V555.654H818.271L818.348 556.622H818.381C818.557 556.285 818.777 556.017 819.041 555.819C819.305 555.621 819.591 555.522 819.899 555.522C820.017 555.522 820.119 555.529 820.207 555.544C820.295 555.559 820.383 555.588 820.471 555.632L820.273 556.402C820.193 556.38 820.116 556.365 820.042 556.358C819.976 556.343 819.888 556.336 819.778 556.336C819.551 556.336 819.313 556.428 819.063 556.611C818.821 556.794 818.609 557.113 818.425 557.568V561H817.523ZM823.451 561.132C822.975 561.132 822.538 561.022 822.142 560.802C821.754 560.575 821.446 560.256 821.218 559.845C820.991 559.427 820.877 558.921 820.877 558.327C820.877 557.748 820.995 557.249 821.229 556.831C821.464 556.413 821.765 556.09 822.131 555.863C822.498 555.636 822.887 555.522 823.297 555.522C823.752 555.522 824.137 555.628 824.452 555.841C824.775 556.046 825.017 556.336 825.178 556.71C825.34 557.084 825.42 557.524 825.42 558.03C825.42 558.125 825.417 558.217 825.409 558.305C825.409 558.393 825.398 558.481 825.376 558.569H821.526V557.854H824.606C824.606 557.341 824.493 556.948 824.265 556.677C824.045 556.398 823.726 556.259 823.308 556.259C823.066 556.259 822.828 556.329 822.593 556.468C822.359 556.6 822.164 556.816 822.01 557.117C821.864 557.418 821.79 557.817 821.79 558.316C821.79 558.771 821.867 559.152 822.021 559.46C822.183 559.768 822.399 560.003 822.67 560.164C822.942 560.318 823.239 560.395 823.561 560.395C823.818 560.395 824.056 560.358 824.276 560.285C824.504 560.212 824.709 560.113 824.892 559.988L825.222 560.582C824.988 560.743 824.724 560.875 824.43 560.978C824.144 561.081 823.818 561.132 823.451 561.132Z" fill="#D05E0B"/>
<rect x="595.25" y="321.25" width="267.5" height="28.5" rx="3.75" fill="#1E130B" stroke="#DF935C" stroke-width="0.5"/>
<rect x="595.25" y="391.25" width="267.5" height="29.5" rx="3.75" fill="#1E130B" stroke="#DF935C" stroke-width="0.5"/>
<rect x="595.25" y="430.25" width="9.5" height="9.5" rx="1.75" fill="#1E130B" stroke="#B2764A" stroke-width="0.5"/>
<rect x="655.25" y="480.25" width="147.5" height="25.5" rx="3.75" fill="url(#paint3_linear_218_2)" stroke="#E97929" stroke-width="0.5"/>
<path d="M708.08 498.18C707.38 498.18 706.74 498.05 706.16 497.79C705.58 497.52 705.07 497.16 704.63 496.71L705.335 495.9C705.685 496.27 706.1 496.56 706.58 496.77C707.07 496.98 707.575 497.085 708.095 497.085C708.745 497.085 709.25 496.94 709.61 496.65C709.97 496.35 710.15 495.96 710.15 495.48C710.15 495.14 710.075 494.87 709.925 494.67C709.785 494.47 709.59 494.3 709.34 494.16C709.1 494.02 708.825 493.88 708.515 493.74L707.105 493.125C706.785 492.985 706.47 492.81 706.16 492.6C705.86 492.39 705.61 492.125 705.41 491.805C705.21 491.475 705.11 491.07 705.11 490.59C705.11 490.09 705.24 489.645 705.5 489.255C705.77 488.855 706.135 488.545 706.595 488.325C707.065 488.095 707.6 487.98 708.2 487.98C708.8 487.98 709.35 488.09 709.85 488.31C710.35 488.53 710.77 488.815 711.11 489.165L710.435 489.975C710.125 489.705 709.785 489.49 709.415 489.33C709.045 489.16 708.64 489.075 708.2 489.075C707.65 489.075 707.205 489.205 706.865 489.465C706.535 489.725 706.37 490.075 706.37 490.515C706.37 490.825 706.45 491.08 706.61 491.28C706.77 491.48 706.975 491.645 707.225 491.775C707.485 491.905 707.745 492.03 708.005 492.15L709.4 492.75C709.79 492.92 710.135 493.115 710.435 493.335C710.745 493.555 710.985 493.83 711.155 494.16C711.335 494.49 711.425 494.895 711.425 495.375C711.425 495.895 711.29 496.37 711.02 496.8C710.76 497.22 710.375 497.555 709.865 497.805C709.365 498.055 708.77 498.18 708.08 498.18ZM713.318 498V490.71H714.548V498H713.318ZM713.933 489.21C713.693 489.21 713.493 489.135 713.333 488.985C713.183 488.835 713.108 488.64 713.108 488.4C713.108 488.16 713.183 487.965 713.333 487.815C713.493 487.665 713.693 487.59 713.933 487.59C714.173 487.59 714.368 487.665 714.518 487.815C714.678 487.965 714.758 488.16 714.758 488.4C714.758 488.64 714.678 488.835 714.518 488.985C714.368 489.135 714.173 489.21 713.933 489.21ZM719.544 501.36C718.954 501.36 718.429 501.28 717.969 501.12C717.519 500.97 717.164 500.75 716.904 500.46C716.654 500.17 716.529 499.815 716.529 499.395C716.529 499.085 716.624 498.785 716.814 498.495C717.004 498.215 717.264 497.965 717.594 497.745V497.685C717.414 497.565 717.259 497.41 717.129 497.22C717.009 497.02 716.949 496.78 716.949 496.5C716.949 496.19 717.034 495.92 717.204 495.69C717.384 495.46 717.564 495.28 717.744 495.15V495.09C717.514 494.89 717.299 494.62 717.099 494.28C716.899 493.94 716.799 493.555 716.799 493.125C716.799 492.595 716.924 492.135 717.174 491.745C717.434 491.355 717.769 491.055 718.179 490.845C718.599 490.635 719.054 490.53 719.544 490.53C719.744 490.53 719.934 490.55 720.114 490.59C720.294 490.62 720.449 490.66 720.579 490.71H723.114V491.655H721.599V491.715C721.779 491.875 721.924 492.075 722.034 492.315C722.154 492.555 722.214 492.84 722.214 493.17C722.214 493.69 722.094 494.14 721.854 494.52C721.614 494.89 721.294 495.18 720.894 495.39C720.494 495.59 720.044 495.69 719.544 495.69C719.364 495.69 719.179 495.67 718.989 495.63C718.799 495.58 718.619 495.515 718.449 495.435C718.329 495.545 718.219 495.665 718.119 495.795C718.029 495.925 717.984 496.095 717.984 496.305C717.984 496.535 718.074 496.725 718.254 496.875C718.444 497.025 718.784 497.1 719.274 497.1H720.684C721.534 497.1 722.169 497.24 722.589 497.52C723.019 497.79 723.234 498.23 723.234 498.84C723.234 499.29 723.084 499.705 722.784 500.085C722.484 500.465 722.054 500.77 721.494 501C720.944 501.24 720.294 501.36 719.544 501.36ZM719.544 494.865C719.824 494.865 720.079 494.795 720.309 494.655C720.549 494.505 720.739 494.3 720.879 494.04C721.019 493.78 721.089 493.475 721.089 493.125C721.089 492.585 720.939 492.17 720.639 491.88C720.339 491.58 719.974 491.43 719.544 491.43C719.114 491.43 718.749 491.58 718.449 491.88C718.149 492.17 717.999 492.585 717.999 493.125C717.999 493.475 718.069 493.78 718.209 494.04C718.349 494.3 718.534 494.505 718.764 494.655C719.004 494.795 719.264 494.865 719.544 494.865ZM719.724 500.505C720.184 500.505 720.584 500.435 720.924 500.295C721.274 500.155 721.544 499.97 721.734 499.74C721.934 499.51 722.034 499.27 722.034 499.02C722.034 498.68 721.904 498.445 721.644 498.315C721.394 498.185 721.034 498.12 720.564 498.12H719.304C719.164 498.12 719.009 498.11 718.839 498.09C718.679 498.07 718.519 498.04 718.359 498C718.089 498.19 717.894 498.39 717.774 498.6C717.664 498.81 717.609 499.02 717.609 499.23C717.609 499.62 717.794 499.93 718.164 500.16C718.544 500.39 719.064 500.505 719.724 500.505ZM724.718 498V490.71H725.738L725.843 491.76H725.888C726.238 491.41 726.608 491.12 726.998 490.89C727.388 490.65 727.833 490.53 728.333 490.53C729.103 490.53 729.663 490.775 730.013 491.265C730.373 491.745 730.553 492.45 730.553 493.38V498H729.323V493.545C729.323 492.855 729.213 492.36 728.993 492.06C728.783 491.75 728.433 491.595 727.943 491.595C727.573 491.595 727.238 491.69 726.938 491.88C726.648 492.07 726.318 492.35 725.948 492.72V498H724.718ZM736.074 498V490.71H737.304V498H736.074ZM736.689 489.21C736.449 489.21 736.249 489.135 736.089 488.985C735.939 488.835 735.864 488.64 735.864 488.4C735.864 488.16 735.939 487.965 736.089 487.815C736.249 487.665 736.449 487.59 736.689 487.59C736.929 487.59 737.124 487.665 737.274 487.815C737.434 487.965 737.514 488.16 737.514 488.4C737.514 488.64 737.434 488.835 737.274 488.985C737.124 489.135 736.929 489.21 736.689 489.21ZM739.84 498V490.71H740.86L740.965 491.76H741.01C741.36 491.41 741.73 491.12 742.12 490.89C742.51 490.65 742.955 490.53 743.455 490.53C744.225 490.53 744.785 490.775 745.135 491.265C745.495 491.745 745.675 492.45 745.675 493.38V498H744.445V493.545C744.445 492.855 744.335 492.36 744.115 492.06C743.905 491.75 743.555 491.595 743.065 491.595C742.695 491.595 742.36 491.69 742.06 491.88C741.77 492.07 741.44 492.35 741.07 492.72V498H739.84Z" fill="white"/>
<path d="M634.968 248.216C634.188 248.216 633.42 248.078 632.664 247.802C631.908 247.514 631.23 247.082 630.63 246.506L632.034 244.778C632.454 245.138 632.928 245.42 633.456 245.624C633.996 245.828 634.524 245.93 635.04 245.93C635.592 245.93 636 245.828 636.264 245.624C636.54 245.42 636.678 245.144 636.678 244.796C636.678 244.544 636.606 244.346 636.462 244.202C636.33 244.046 636.138 243.908 635.886 243.788C635.634 243.668 635.334 243.536 634.986 243.392L633.456 242.762C633.06 242.582 632.676 242.354 632.304 242.078C631.944 241.79 631.65 241.442 631.422 241.034C631.206 240.614 631.098 240.116 631.098 239.54C631.098 238.892 631.272 238.31 631.62 237.794C631.98 237.266 632.472 236.846 633.096 236.534C633.732 236.21 634.458 236.048 635.274 236.048C635.982 236.048 636.666 236.174 637.326 236.426C637.986 236.678 638.562 237.044 639.054 237.524L637.65 239.234C637.266 238.946 636.87 238.724 636.462 238.568C636.066 238.412 635.67 238.334 635.274 238.334C634.818 238.334 634.452 238.43 634.176 238.622C633.912 238.802 633.78 239.06 633.78 239.396C633.78 239.624 633.858 239.822 634.014 239.99C634.17 240.146 634.386 240.284 634.662 240.404C634.938 240.512 635.238 240.638 635.562 240.782L637.074 241.394C637.554 241.586 637.962 241.826 638.298 242.114C638.646 242.402 638.916 242.75 639.108 243.158C639.3 243.554 639.396 244.028 639.396 244.58C639.396 245.228 639.222 245.828 638.874 246.38C638.526 246.932 638.022 247.376 637.362 247.712C636.702 248.048 635.904 248.216 634.968 248.216ZM641.262 248V239.072H643.908V248H641.262ZM642.576 237.758C642.132 237.758 641.772 237.632 641.496 237.38C641.22 237.128 641.082 236.792 641.082 236.372C641.082 235.952 641.22 235.616 641.496 235.364C641.772 235.112 642.132 234.986 642.576 234.986C643.02 234.986 643.38 235.112 643.656 235.364C643.932 235.616 644.07 235.952 644.07 236.372C644.07 236.792 643.932 237.128 643.656 237.38C643.38 237.632 643.02 237.758 642.576 237.758ZM649.513 251.798C648.817 251.798 648.181 251.714 647.605 251.546C647.041 251.39 646.591 251.144 646.255 250.808C645.931 250.484 645.769 250.058 645.769 249.53C645.769 249.158 645.877 248.822 646.093 248.522C646.321 248.222 646.639 247.958 647.047 247.73V247.658C646.819 247.502 646.621 247.304 646.453 247.064C646.297 246.812 646.219 246.506 646.219 246.146C646.219 245.822 646.315 245.516 646.507 245.228C646.699 244.928 646.939 244.676 647.227 244.472V244.4C646.903 244.184 646.621 243.872 646.381 243.464C646.141 243.056 646.021 242.594 646.021 242.078C646.021 241.37 646.195 240.776 646.543 240.296C646.891 239.816 647.347 239.456 647.911 239.216C648.475 238.976 649.075 238.856 649.711 238.856C649.963 238.856 650.203 238.874 650.431 238.91C650.671 238.946 650.893 239 651.097 239.072H654.355V240.998H652.861V241.07C652.981 241.226 653.071 241.4 653.131 241.592C653.191 241.772 653.221 241.976 653.221 242.204C653.221 242.876 653.065 243.434 652.753 243.878C652.441 244.31 652.015 244.634 651.475 244.85C650.947 245.066 650.359 245.174 649.711 245.174C649.555 245.174 649.387 245.162 649.207 245.138C649.027 245.102 648.835 245.054 648.631 244.994C648.523 245.09 648.439 245.186 648.379 245.282C648.331 245.378 648.307 245.504 648.307 245.66C648.307 245.876 648.409 246.044 648.613 246.164C648.817 246.272 649.165 246.326 649.657 246.326H651.097C652.201 246.326 653.041 246.506 653.617 246.866C654.205 247.214 654.499 247.79 654.499 248.594C654.499 249.206 654.295 249.752 653.887 250.232C653.479 250.724 652.903 251.108 652.159 251.384C651.415 251.66 650.533 251.798 649.513 251.798ZM649.711 243.572C649.951 243.572 650.161 243.518 650.341 243.41C650.521 243.29 650.665 243.122 650.773 242.906C650.881 242.69 650.935 242.414 650.935 242.078C650.935 241.598 650.815 241.238 650.575 240.998C650.347 240.758 650.059 240.638 649.711 240.638C649.363 240.638 649.069 240.758 648.829 240.998C648.601 241.238 648.487 241.598 648.487 242.078C648.487 242.414 648.541 242.69 648.649 242.906C648.769 243.122 648.919 243.29 649.099 243.41C649.279 243.518 649.483 243.572 649.711 243.572ZM649.927 250.142C650.323 250.142 650.671 250.094 650.971 249.998C651.283 249.902 651.529 249.77 651.709 249.602C651.889 249.434 651.979 249.248 651.979 249.044C651.979 248.756 651.859 248.564 651.619 248.468C651.379 248.384 651.043 248.342 650.611 248.342H649.693C649.381 248.342 649.129 248.33 648.937 248.306C648.757 248.294 648.589 248.27 648.433 248.234C648.265 248.378 648.139 248.516 648.055 248.648C647.983 248.792 647.947 248.948 647.947 249.116C647.947 249.452 648.127 249.704 648.487 249.872C648.859 250.052 649.339 250.142 649.927 250.142ZM656.032 248V239.072H658.192L658.372 240.206H658.444C658.816 239.834 659.236 239.516 659.704 239.252C660.172 238.988 660.706 238.856 661.306 238.856C662.29 238.856 662.998 239.18 663.43 239.828C663.862 240.464 664.078 241.34 664.078 242.456V248H661.432V242.798C661.432 242.15 661.342 241.706 661.162 241.466C660.994 241.226 660.718 241.106 660.334 241.106C659.998 241.106 659.71 241.184 659.47 241.34C659.23 241.484 658.966 241.694 658.678 241.97V248H656.032ZM670.116 248V239.072H672.762V248H670.116ZM671.43 237.758C670.986 237.758 670.626 237.632 670.35 237.38C670.074 237.128 669.936 236.792 669.936 236.372C669.936 235.952 670.074 235.616 670.35 235.364C670.626 235.112 670.986 234.986 671.43 234.986C671.874 234.986 672.234 235.112 672.51 235.364C672.786 235.616 672.924 235.952 672.924 236.372C672.924 236.792 672.786 237.128 672.51 237.38C672.234 237.632 671.874 237.758 671.43 237.758ZM675.181 248V239.072H677.341L677.521 240.206H677.593C677.965 239.834 678.385 239.516 678.853 239.252C679.321 238.988 679.855 238.856 680.455 238.856C681.439 238.856 682.147 239.18 682.579 239.828C683.011 240.464 683.227 241.34 683.227 242.456V248H680.581V242.798C680.581 242.15 680.491 241.706 680.311 241.466C680.143 241.226 679.867 241.106 679.483 241.106C679.147 241.106 678.859 241.184 678.619 241.34C678.379 241.484 678.115 241.694 677.827 241.97V248H675.181ZM692.703 248.198C691.599 248.198 690.807 247.88 690.327 247.244C689.847 246.596 689.607 245.762 689.607 244.742V241.142H688.401V239.18L689.769 239.072L690.075 236.336H692.271V239.072H694.413V241.142H692.271V244.706C692.271 245.21 692.373 245.576 692.577 245.804C692.793 246.02 693.075 246.128 693.423 246.128C693.567 246.128 693.711 246.116 693.855 246.092C693.999 246.068 694.137 246.032 694.269 245.984L694.701 247.838C694.473 247.934 694.185 248.018 693.837 248.09C693.501 248.162 693.123 248.198 692.703 248.198ZM699.763 248.216C699.007 248.216 698.299 248.036 697.639 247.676C696.979 247.304 696.439 246.77 696.019 246.074C695.611 245.366 695.407 244.52 695.407 243.536C695.407 242.552 695.611 241.712 696.019 241.016C696.439 240.308 696.979 239.774 697.639 239.414C698.299 239.042 699.007 238.856 699.763 238.856C700.507 238.856 701.209 239.042 701.869 239.414C702.529 239.774 703.063 240.308 703.471 241.016C703.891 241.712 704.101 242.552 704.101 243.536C704.101 244.52 703.891 245.366 703.471 246.074C703.063 246.77 702.529 247.304 701.869 247.676C701.209 248.036 700.507 248.216 699.763 248.216ZM699.763 246.074C700.123 246.074 700.423 245.972 700.663 245.768C700.915 245.564 701.101 245.27 701.221 244.886C701.341 244.502 701.401 244.052 701.401 243.536C701.401 243.02 701.341 242.57 701.221 242.186C701.101 241.802 700.915 241.508 700.663 241.304C700.423 241.1 700.123 240.998 699.763 240.998C699.391 240.998 699.085 241.1 698.845 241.304C698.605 241.508 698.425 241.802 698.305 242.186C698.185 242.57 698.125 243.02 698.125 243.536C698.125 244.052 698.185 244.502 698.305 244.886C698.425 245.27 698.605 245.564 698.845 245.768C699.085 245.972 699.391 246.074 699.763 246.074ZM710.687 251.492C710.423 251.492 710.189 251.474 709.985 251.438C709.793 251.402 709.607 251.348 709.427 251.276L709.895 249.332C710.027 249.368 710.135 249.386 710.219 249.386C710.315 249.398 710.405 249.404 710.489 249.404C710.933 249.404 711.275 249.29 711.515 249.062C711.767 248.846 711.947 248.57 712.055 248.234L712.181 247.766L708.743 239.072H711.407L712.685 242.906C712.817 243.314 712.937 243.728 713.045 244.148C713.153 244.568 713.267 245 713.387 245.444H713.459C713.555 245.024 713.651 244.604 713.747 244.184C713.855 243.752 713.963 243.326 714.071 242.906L715.151 239.072H717.689L714.593 248.09C714.305 248.834 713.993 249.458 713.657 249.962C713.333 250.466 712.931 250.844 712.451 251.096C711.983 251.36 711.395 251.492 710.687 251.492ZM722.867 248.216C722.111 248.216 721.403 248.036 720.743 247.676C720.083 247.304 719.543 246.77 719.123 246.074C718.715 245.366 718.511 244.52 718.511 243.536C718.511 242.552 718.715 241.712 719.123 241.016C719.543 240.308 720.083 239.774 720.743 239.414C721.403 239.042 722.111 238.856 722.867 238.856C723.611 238.856 724.313 239.042 724.973 239.414C725.633 239.774 726.167 240.308 726.575 241.016C726.995 241.712 727.205 242.552 727.205 243.536C727.205 244.52 726.995 245.366 726.575 246.074C726.167 246.77 725.633 247.304 724.973 247.676C724.313 248.036 723.611 248.216 722.867 248.216ZM722.867 246.074C723.227 246.074 723.527 245.972 723.767 245.768C724.019 245.564 724.205 245.27 724.325 244.886C724.445 244.502 724.505 244.052 724.505 243.536C724.505 243.02 724.445 242.57 724.325 242.186C724.205 241.802 724.019 241.508 723.767 241.304C723.527 241.1 723.227 240.998 722.867 240.998C722.495 240.998 722.189 241.1 721.949 241.304C721.709 241.508 721.529 241.802 721.409 242.186C721.289 242.57 721.229 243.02 721.229 243.536C721.229 244.052 721.289 244.502 721.409 244.886C721.529 245.27 721.709 245.564 721.949 245.768C722.189 245.972 722.495 246.074 722.867 246.074ZM731.79 248.216C730.818 248.216 730.11 247.898 729.666 247.262C729.234 246.614 729.018 245.732 729.018 244.616V239.072H731.664V244.274C731.664 244.922 731.754 245.366 731.934 245.606C732.114 245.846 732.396 245.966 732.78 245.966C733.104 245.966 733.386 245.888 733.626 245.732C733.866 245.576 734.112 245.324 734.364 244.976V239.072H737.01V248H734.85L734.652 246.758H734.598C734.226 247.202 733.818 247.556 733.374 247.82C732.93 248.084 732.402 248.216 731.79 248.216ZM739.428 248V239.072H741.588L741.768 240.638H741.84C742.164 240.038 742.548 239.594 742.992 239.306C743.448 239.006 743.91 238.856 744.378 238.856C744.63 238.856 744.84 238.874 745.008 238.91C745.176 238.934 745.32 238.976 745.44 239.036L744.936 241.286C744.792 241.25 744.654 241.226 744.522 241.214C744.39 241.19 744.228 241.178 744.036 241.178C743.7 241.178 743.346 241.298 742.974 241.538C742.614 241.778 742.314 242.204 742.074 242.816V248H739.428ZM752.633 248.216C752.093 248.216 751.619 248.096 751.211 247.856C750.815 247.616 750.509 247.292 750.293 246.884C750.077 246.476 749.969 246.02 749.969 245.516C749.969 244.556 750.365 243.818 751.157 243.302C751.949 242.774 753.227 242.42 754.991 242.24C754.979 241.976 754.919 241.754 754.811 241.574C754.715 241.382 754.565 241.238 754.361 241.142C754.157 241.034 753.899 240.98 753.587 240.98C753.215 240.98 752.837 241.046 752.453 241.178C752.069 241.31 751.655 241.502 751.211 241.754L750.275 240.026C750.659 239.786 751.055 239.582 751.463 239.414C751.871 239.234 752.291 239.096 752.723 239C753.167 238.904 753.623 238.856 754.091 238.856C754.859 238.856 755.501 239.006 756.017 239.306C756.545 239.594 756.947 240.038 757.223 240.638C757.499 241.226 757.637 241.982 757.637 242.906V248H755.477L755.297 247.082H755.225C754.841 247.418 754.439 247.694 754.019 247.91C753.599 248.114 753.137 248.216 752.633 248.216ZM753.515 246.146C753.815 246.146 754.079 246.08 754.307 245.948C754.535 245.816 754.763 245.636 754.991 245.408V243.896C754.367 243.98 753.869 244.088 753.497 244.22C753.137 244.352 752.879 244.514 752.723 244.706C752.579 244.886 752.507 245.09 752.507 245.318C752.507 245.594 752.597 245.804 752.777 245.948C752.969 246.08 753.215 246.146 753.515 246.146ZM763.908 248.216C763.068 248.216 762.306 248.03 761.622 247.658C760.95 247.286 760.416 246.752 760.02 246.056C759.636 245.36 759.444 244.52 759.444 243.536C759.444 242.552 759.66 241.712 760.092 241.016C760.524 240.32 761.094 239.786 761.802 239.414C762.51 239.042 763.272 238.856 764.088 238.856C764.64 238.856 765.132 238.946 765.564 239.126C766.008 239.294 766.386 239.522 766.698 239.81L765.456 241.448C765.3 241.316 765.12 241.208 764.916 241.124C764.724 241.04 764.502 240.998 764.25 240.998C763.83 240.998 763.464 241.1 763.152 241.304C762.84 241.508 762.594 241.802 762.414 242.186C762.234 242.57 762.144 243.02 762.144 243.536C762.144 244.052 762.234 244.502 762.414 244.886C762.594 245.27 762.834 245.564 763.134 245.768C763.446 245.972 763.794 246.074 764.178 246.074C764.478 246.074 764.76 246.02 765.024 245.912C765.288 245.804 765.534 245.666 765.762 245.498L766.806 247.118C766.434 247.454 765.996 247.724 765.492 247.928C764.988 248.12 764.46 248.216 763.908 248.216ZM771.925 248.216C771.085 248.216 770.323 248.03 769.639 247.658C768.967 247.286 768.433 246.752 768.037 246.056C767.653 245.36 767.461 244.52 767.461 243.536C767.461 242.552 767.677 241.712 768.109 241.016C768.541 240.32 769.111 239.786 769.819 239.414C770.527 239.042 771.289 238.856 772.105 238.856C772.657 238.856 773.149 238.946 773.581 239.126C774.025 239.294 774.403 239.522 774.715 239.81L773.473 241.448C773.317 241.316 773.137 241.208 772.933 241.124C772.741 241.04 772.519 240.998 772.267 240.998C771.847 240.998 771.481 241.1 771.169 241.304C770.857 241.508 770.611 241.802 770.431 242.186C770.251 242.57 770.161 243.02 770.161 243.536C770.161 244.052 770.251 244.502 770.431 244.886C770.611 245.27 770.851 245.564 771.151 245.768C771.463 245.972 771.811 246.074 772.195 246.074C772.495 246.074 772.777 246.02 773.041 245.912C773.305 245.804 773.551 245.666 773.779 245.498L774.823 247.118C774.451 247.454 774.013 247.724 773.509 247.928C773.005 248.12 772.477 248.216 771.925 248.216ZM779.835 248.216C779.079 248.216 778.371 248.036 777.711 247.676C777.051 247.304 776.511 246.77 776.091 246.074C775.683 245.366 775.479 244.52 775.479 243.536C775.479 242.552 775.683 241.712 776.091 241.016C776.511 240.308 777.051 239.774 777.711 239.414C778.371 239.042 779.079 238.856 779.835 238.856C780.579 238.856 781.281 239.042 781.941 239.414C782.601 239.774 783.135 240.308 783.543 241.016C783.963 241.712 784.173 242.552 784.173 243.536C784.173 244.52 783.963 245.366 783.543 246.074C783.135 246.77 782.601 247.304 781.941 247.676C781.281 248.036 780.579 248.216 779.835 248.216ZM779.835 246.074C780.195 246.074 780.495 245.972 780.735 245.768C780.987 245.564 781.173 245.27 781.293 244.886C781.413 244.502 781.473 244.052 781.473 243.536C781.473 243.02 781.413 242.57 781.293 242.186C781.173 241.802 780.987 241.508 780.735 241.304C780.495 241.1 780.195 240.998 779.835 240.998C779.463 240.998 779.157 241.1 778.917 241.304C778.677 241.508 778.497 241.802 778.377 242.186C778.257 242.57 778.197 243.02 778.197 243.536C778.197 244.052 778.257 244.502 778.377 244.886C778.497 245.27 778.677 245.564 778.917 245.768C779.157 245.972 779.463 246.074 779.835 246.074ZM788.757 248.216C787.785 248.216 787.077 247.898 786.633 247.262C786.201 246.614 785.985 245.732 785.985 244.616V239.072H788.631V244.274C788.631 244.922 788.721 245.366 788.901 245.606C789.081 245.846 789.363 245.966 789.747 245.966C790.071 245.966 790.353 245.888 790.593 245.732C790.833 245.576 791.079 245.324 791.331 244.976V239.072H793.977V248H791.817L791.619 246.758H791.565C791.193 247.202 790.785 247.556 790.341 247.82C789.897 248.084 789.369 248.216 788.757 248.216ZM796.396 248V239.072H798.556L798.736 240.206H798.808C799.18 239.834 799.6 239.516 800.068 239.252C800.536 238.988 801.07 238.856 801.67 238.856C802.654 238.856 803.362 239.18 803.794 239.828C804.226 240.464 804.442 241.34 804.442 242.456V248H801.796V242.798C801.796 242.15 801.706 241.706 801.526 241.466C801.358 241.226 801.082 241.106 800.698 241.106C800.362 241.106 800.074 241.184 799.834 241.34C799.594 241.484 799.33 241.694 799.042 241.97V248H796.396ZM810.225 248.198C809.121 248.198 808.329 247.88 807.849 247.244C807.369 246.596 807.129 245.762 807.129 244.742V241.142H805.923V239.18L807.291 239.072L807.597 236.336H809.793V239.072H811.935V241.142H809.793V244.706C809.793 245.21 809.895 245.576 810.099 245.804C810.315 246.02 810.597 246.128 810.945 246.128C811.089 246.128 811.233 246.116 811.377 246.092C811.521 246.068 811.659 246.032 811.791 245.984L812.223 247.838C811.995 247.934 811.707 248.018 811.359 248.09C811.023 248.162 810.645 248.198 810.225 248.198Z" fill="#F08E47"/>
<path d="M600.17 312V303.472H605.084V304.382H601.249V307.06H604.486V307.983H601.249V311.077H605.214V312H600.17ZM606.986 312V305.682H607.87L607.961 306.592H608C608.278 306.297 608.577 306.046 608.897 305.838C609.227 305.63 609.582 305.526 609.963 305.526C610.449 305.526 610.826 305.634 611.094 305.851C611.372 306.068 611.575 306.362 611.705 306.735C612.035 306.371 612.368 306.081 612.706 305.864C613.044 305.639 613.404 305.526 613.785 305.526C614.444 305.526 614.929 305.738 615.241 306.163C615.553 306.579 615.709 307.19 615.709 307.996V312H614.643V308.139C614.643 307.541 614.548 307.112 614.357 306.852C614.167 306.583 613.872 306.449 613.473 306.449C613.222 306.449 612.966 306.531 612.706 306.696C612.455 306.852 612.182 307.095 611.887 307.424V312H610.821V308.139C610.821 307.541 610.726 307.112 610.535 306.852C610.345 306.583 610.046 306.449 609.638 306.449C609.162 306.449 608.633 306.774 608.052 307.424V312H606.986ZM619.286 312.156C618.939 312.156 618.623 312.087 618.337 311.948C618.059 311.801 617.838 311.597 617.674 311.337C617.509 311.068 617.427 310.743 617.427 310.362C617.427 309.651 617.739 309.114 618.363 308.75C618.987 308.386 619.975 308.13 621.327 307.983C621.318 307.723 621.275 307.472 621.197 307.229C621.127 306.986 620.997 306.791 620.807 306.644C620.616 306.497 620.352 306.423 620.014 306.423C619.65 306.423 619.307 306.492 618.987 306.631C618.666 306.761 618.38 306.908 618.129 307.073L617.713 306.345C617.903 306.215 618.129 306.089 618.389 305.968C618.649 305.838 618.93 305.734 619.234 305.656C619.537 305.569 619.858 305.526 620.196 305.526C620.707 305.526 621.123 305.634 621.444 305.851C621.773 306.059 622.011 306.358 622.159 306.748C622.315 307.138 622.393 307.597 622.393 308.126V312H621.509L621.418 311.246H621.379C621.075 311.497 620.75 311.714 620.404 311.896C620.057 312.069 619.684 312.156 619.286 312.156ZM619.585 311.272C619.897 311.272 620.187 311.203 620.456 311.064C620.733 310.925 621.023 310.722 621.327 310.453V308.75C620.616 308.837 620.053 308.949 619.637 309.088C619.229 309.218 618.935 309.383 618.753 309.582C618.571 309.781 618.48 310.02 618.48 310.297C618.48 310.644 618.588 310.895 618.805 311.051C619.021 311.198 619.281 311.272 619.585 311.272ZM624.446 312V305.682H625.512V312H624.446ZM624.979 304.382C624.771 304.382 624.597 304.317 624.459 304.187C624.329 304.057 624.264 303.888 624.264 303.68C624.264 303.472 624.329 303.303 624.459 303.173C624.597 303.043 624.771 302.978 624.979 302.978C625.187 302.978 625.356 303.043 625.486 303.173C625.624 303.303 625.694 303.472 625.694 303.68C625.694 303.888 625.624 304.057 625.486 304.187C625.356 304.317 625.187 304.382 624.979 304.382ZM628.841 312.117C628.572 312.117 628.355 312.065 628.191 311.961C628.026 311.848 627.905 311.688 627.827 311.48C627.749 311.263 627.71 311.003 627.71 310.7V302.744H628.776V310.778C628.776 310.951 628.806 311.073 628.867 311.142C628.927 311.203 629.001 311.233 629.088 311.233C629.122 311.233 629.153 311.233 629.179 311.233C629.213 311.224 629.257 311.216 629.309 311.207L629.465 312.013C629.387 312.039 629.296 312.061 629.192 312.078C629.096 312.104 628.979 312.117 628.841 312.117ZM636.213 312.156C635.701 312.156 635.22 312.026 634.77 311.766C634.328 311.506 633.968 311.129 633.691 310.635C633.422 310.141 633.288 309.547 633.288 308.854C633.288 308.143 633.422 307.541 633.691 307.047C633.968 306.553 634.328 306.176 634.77 305.916C635.22 305.656 635.701 305.526 636.213 305.526C636.733 305.526 637.214 305.656 637.656 305.916C638.098 306.176 638.453 306.553 638.722 307.047C638.999 307.541 639.138 308.143 639.138 308.854C639.138 309.547 638.999 310.141 638.722 310.635C638.453 311.129 638.098 311.506 637.656 311.766C637.214 312.026 636.733 312.156 636.213 312.156ZM636.213 311.272C636.577 311.272 636.897 311.172 637.175 310.973C637.452 310.765 637.664 310.479 637.812 310.115C637.959 309.751 638.033 309.331 638.033 308.854C638.033 308.369 637.959 307.944 637.812 307.58C637.664 307.207 637.452 306.921 637.175 306.722C636.897 306.514 636.577 306.41 636.213 306.41C635.849 306.41 635.528 306.514 635.251 306.722C634.982 306.921 634.77 307.207 634.614 307.58C634.466 307.944 634.393 308.369 634.393 308.854C634.393 309.331 634.466 309.751 634.614 310.115C634.77 310.479 634.982 310.765 635.251 310.973C635.528 311.172 635.849 311.272 636.213 311.272ZM640.867 312V305.682H641.751L641.842 306.826H641.881C642.089 306.427 642.349 306.111 642.661 305.877C642.973 305.643 643.311 305.526 643.675 305.526C643.813 305.526 643.935 305.535 644.039 305.552C644.143 305.569 644.247 305.604 644.351 305.656L644.117 306.566C644.021 306.54 643.93 306.523 643.844 306.514C643.766 306.497 643.662 306.488 643.532 306.488C643.263 306.488 642.981 306.596 642.687 306.813C642.401 307.03 642.149 307.407 641.933 307.944V312H640.867ZM649.952 312.156C649.285 312.156 648.795 311.948 648.483 311.532C648.18 311.107 648.028 310.492 648.028 309.686V305.682H649.094V309.543C649.094 310.132 649.185 310.561 649.367 310.83C649.558 311.09 649.861 311.22 650.277 311.22C650.598 311.22 650.884 311.138 651.135 310.973C651.395 310.8 651.677 310.531 651.98 310.167V305.682H653.046V312H652.162L652.071 311.012H652.032C651.746 311.359 651.434 311.636 651.096 311.844C650.767 312.052 650.385 312.156 649.952 312.156ZM656.893 312.156C656.434 312.156 655.996 312.078 655.58 311.922C655.173 311.757 654.826 311.532 654.54 311.246L655.034 310.622C655.312 310.847 655.598 311.021 655.892 311.142C656.196 311.263 656.542 311.324 656.932 311.324C657.348 311.324 657.66 311.229 657.868 311.038C658.076 310.839 658.18 310.605 658.18 310.336C658.18 310.119 658.107 309.942 657.959 309.803C657.821 309.656 657.643 309.534 657.426 309.439C657.218 309.335 656.993 309.24 656.75 309.153C656.438 309.04 656.139 308.91 655.853 308.763C655.567 308.607 655.333 308.416 655.151 308.191C654.978 307.957 654.891 307.667 654.891 307.32C654.891 306.809 655.082 306.384 655.463 306.046C655.853 305.699 656.391 305.526 657.075 305.526C657.465 305.526 657.829 305.595 658.167 305.734C658.505 305.864 658.796 306.033 659.038 306.241L658.544 306.852C658.319 306.696 658.089 306.575 657.855 306.488C657.621 306.401 657.361 306.358 657.075 306.358C656.677 306.358 656.382 306.449 656.191 306.631C656.009 306.813 655.918 307.025 655.918 307.268C655.918 307.459 655.975 307.619 656.087 307.749C656.2 307.87 656.356 307.979 656.555 308.074C656.763 308.169 656.997 308.26 657.257 308.347C657.587 308.468 657.899 308.607 658.193 308.763C658.497 308.91 658.739 309.105 658.921 309.348C659.112 309.582 659.207 309.89 659.207 310.271C659.207 310.618 659.116 310.934 658.934 311.22C658.761 311.497 658.501 311.723 658.154 311.896C657.816 312.069 657.396 312.156 656.893 312.156ZM663.315 312.156C662.751 312.156 662.236 312.026 661.768 311.766C661.308 311.497 660.944 311.12 660.676 310.635C660.407 310.141 660.273 309.543 660.273 308.841C660.273 308.156 660.411 307.567 660.689 307.073C660.966 306.579 661.321 306.198 661.755 305.929C662.188 305.66 662.647 305.526 663.133 305.526C663.67 305.526 664.125 305.652 664.498 305.903C664.879 306.146 665.165 306.488 665.356 306.93C665.546 307.372 665.642 307.892 665.642 308.49C665.642 308.603 665.637 308.711 665.629 308.815C665.629 308.919 665.616 309.023 665.59 309.127H661.04V308.282H664.68C664.68 307.675 664.545 307.212 664.277 306.891C664.017 306.562 663.64 306.397 663.146 306.397C662.86 306.397 662.578 306.479 662.301 306.644C662.023 306.8 661.794 307.056 661.612 307.411C661.438 307.766 661.352 308.239 661.352 308.828C661.352 309.365 661.443 309.816 661.625 310.18C661.815 310.544 662.071 310.821 662.392 311.012C662.712 311.194 663.063 311.285 663.445 311.285C663.748 311.285 664.03 311.242 664.29 311.155C664.558 311.068 664.801 310.951 665.018 310.804L665.408 311.506C665.13 311.697 664.818 311.853 664.472 311.974C664.134 312.095 663.748 312.156 663.315 312.156ZM667.268 312V305.682H668.152L668.243 306.826H668.282C668.49 306.427 668.75 306.111 669.062 305.877C669.374 305.643 669.712 305.526 670.076 305.526C670.215 305.526 670.336 305.535 670.44 305.552C670.544 305.569 670.648 305.604 670.752 305.656L670.518 306.566C670.423 306.54 670.332 306.523 670.245 306.514C670.167 306.497 670.063 306.488 669.933 306.488C669.664 306.488 669.383 306.596 669.088 306.813C668.802 307.03 668.551 307.407 668.334 307.944V312H667.268ZM671.84 312V305.682H672.724L672.815 306.592H672.854C673.157 306.289 673.478 306.037 673.816 305.838C674.154 305.63 674.539 305.526 674.973 305.526C675.64 305.526 676.125 305.738 676.429 306.163C676.741 306.579 676.897 307.19 676.897 307.996V312H675.831V308.139C675.831 307.541 675.735 307.112 675.545 306.852C675.363 306.583 675.059 306.449 674.635 306.449C674.314 306.449 674.024 306.531 673.764 306.696C673.512 306.861 673.226 307.103 672.906 307.424V312H671.84ZM680.47 312.156C680.123 312.156 679.807 312.087 679.521 311.948C679.244 311.801 679.023 311.597 678.858 311.337C678.693 311.068 678.611 310.743 678.611 310.362C678.611 309.651 678.923 309.114 679.547 308.75C680.171 308.386 681.159 308.13 682.511 307.983C682.502 307.723 682.459 307.472 682.381 307.229C682.312 306.986 682.182 306.791 681.991 306.644C681.8 306.497 681.536 306.423 681.198 306.423C680.834 306.423 680.492 306.492 680.171 306.631C679.85 306.761 679.564 306.908 679.313 307.073L678.897 306.345C679.088 306.215 679.313 306.089 679.573 305.968C679.833 305.838 680.115 305.734 680.418 305.656C680.721 305.569 681.042 305.526 681.38 305.526C681.891 305.526 682.307 305.634 682.628 305.851C682.957 306.059 683.196 306.358 683.343 306.748C683.499 307.138 683.577 307.597 683.577 308.126V312H682.693L682.602 311.246H682.563C682.26 311.497 681.935 311.714 681.588 311.896C681.241 312.069 680.869 312.156 680.47 312.156ZM680.769 311.272C681.081 311.272 681.371 311.203 681.64 311.064C681.917 310.925 682.208 310.722 682.511 310.453V308.75C681.8 308.837 681.237 308.949 680.821 309.088C680.414 309.218 680.119 309.383 679.937 309.582C679.755 309.781 679.664 310.02 679.664 310.297C679.664 310.644 679.772 310.895 679.989 311.051C680.206 311.198 680.466 311.272 680.769 311.272ZM685.63 312V305.682H686.514L686.605 306.592H686.644C686.921 306.297 687.22 306.046 687.541 305.838C687.87 305.63 688.226 305.526 688.607 305.526C689.092 305.526 689.469 305.634 689.738 305.851C690.015 306.068 690.219 306.362 690.349 306.735C690.678 306.371 691.012 306.081 691.35 305.864C691.688 305.639 692.048 305.526 692.429 305.526C693.088 305.526 693.573 305.738 693.885 306.163C694.197 306.579 694.353 307.19 694.353 307.996V312H693.287V308.139C693.287 307.541 693.192 307.112 693.001 306.852C692.81 306.583 692.516 306.449 692.117 306.449C691.866 306.449 691.61 306.531 691.35 306.696C691.099 306.852 690.826 307.095 690.531 307.424V312H689.465V308.139C689.465 307.541 689.37 307.112 689.179 306.852C688.988 306.583 688.689 306.449 688.282 306.449C687.805 306.449 687.277 306.774 686.696 307.424V312H685.63ZM699.034 312.156C698.471 312.156 697.955 312.026 697.487 311.766C697.028 311.497 696.664 311.12 696.395 310.635C696.127 310.141 695.992 309.543 695.992 308.841C695.992 308.156 696.131 307.567 696.408 307.073C696.686 306.579 697.041 306.198 697.474 305.929C697.908 305.66 698.367 305.526 698.852 305.526C699.39 305.526 699.845 305.652 700.217 305.903C700.599 306.146 700.885 306.488 701.075 306.93C701.266 307.372 701.361 307.892 701.361 308.49C701.361 308.603 701.357 308.711 701.348 308.815C701.348 308.919 701.335 309.023 701.309 309.127H696.759V308.282H700.399C700.399 307.675 700.265 307.212 699.996 306.891C699.736 306.562 699.359 306.397 698.865 306.397C698.579 306.397 698.298 306.479 698.02 306.644C697.743 306.8 697.513 307.056 697.331 307.411C697.158 307.766 697.071 308.239 697.071 308.828C697.071 309.365 697.162 309.816 697.344 310.18C697.535 310.544 697.791 310.821 698.111 311.012C698.432 311.194 698.783 311.285 699.164 311.285C699.468 311.285 699.749 311.242 700.009 311.155C700.278 311.068 700.521 310.951 700.737 310.804L701.127 311.506C700.85 311.697 700.538 311.853 700.191 311.974C699.853 312.095 699.468 312.156 699.034 312.156Z" fill="#F1F1F1"/>
<path d="M617.99 561V553.784H619.794C620.535 553.784 621.158 553.923 621.664 554.202C622.17 554.481 622.551 554.888 622.808 555.423C623.072 555.951 623.204 556.596 623.204 557.359C623.204 558.122 623.072 558.778 622.808 559.328C622.551 559.871 622.174 560.285 621.675 560.571C621.176 560.857 620.564 561 619.838 561H617.99ZM618.903 560.252H619.728C620.293 560.252 620.762 560.138 621.136 559.911C621.51 559.676 621.789 559.346 621.972 558.921C622.155 558.496 622.247 557.975 622.247 557.359C622.247 556.758 622.155 556.244 621.972 555.819C621.789 555.394 621.51 555.075 621.136 554.862C620.762 554.642 620.293 554.532 619.728 554.532H618.903V560.252ZM626.804 561.132C626.371 561.132 625.964 561.022 625.583 560.802C625.209 560.582 624.904 560.263 624.67 559.845C624.442 559.427 624.329 558.925 624.329 558.338C624.329 557.737 624.442 557.227 624.67 556.809C624.904 556.391 625.209 556.072 625.583 555.852C625.964 555.632 626.371 555.522 626.804 555.522C627.244 555.522 627.651 555.632 628.025 555.852C628.399 556.072 628.699 556.391 628.927 556.809C629.161 557.227 629.279 557.737 629.279 558.338C629.279 558.925 629.161 559.427 628.927 559.845C628.699 560.263 628.399 560.582 628.025 560.802C627.651 561.022 627.244 561.132 626.804 561.132ZM626.804 560.384C627.112 560.384 627.383 560.3 627.618 560.131C627.852 559.955 628.032 559.713 628.157 559.405C628.281 559.097 628.344 558.741 628.344 558.338C628.344 557.927 628.281 557.568 628.157 557.26C628.032 556.945 627.852 556.703 627.618 556.534C627.383 556.358 627.112 556.27 626.804 556.27C626.496 556.27 626.224 556.358 625.99 556.534C625.762 556.703 625.583 556.945 625.451 557.26C625.326 557.568 625.264 557.927 625.264 558.338C625.264 558.741 625.326 559.097 625.451 559.405C625.583 559.713 625.762 559.955 625.99 560.131C626.224 560.3 626.496 560.384 626.804 560.384ZM630.741 561V555.654H631.489L631.566 556.424H631.599C631.856 556.167 632.127 555.955 632.413 555.786C632.699 555.61 633.026 555.522 633.392 555.522C633.957 555.522 634.368 555.702 634.624 556.061C634.888 556.413 635.02 556.93 635.02 557.612V561H634.118V557.733C634.118 557.227 634.038 556.864 633.876 556.644C633.722 556.417 633.466 556.303 633.106 556.303C632.835 556.303 632.589 556.373 632.369 556.512C632.157 556.651 631.915 556.857 631.643 557.128V561H630.741ZM636.641 556.259L636.388 555.841C636.667 555.658 636.872 555.46 637.004 555.247C637.144 555.034 637.213 554.77 637.213 554.455L637.092 553.729L637.543 554.29C637.477 554.356 637.411 554.404 637.345 554.433C637.287 554.462 637.213 554.477 637.125 554.477C636.971 554.477 636.836 554.429 636.718 554.334C636.601 554.239 636.542 554.103 636.542 553.927C636.542 553.736 636.597 553.586 636.707 553.476C636.817 553.366 636.957 553.311 637.125 553.311C637.345 553.311 637.514 553.399 637.631 553.575C637.756 553.744 637.818 553.989 637.818 554.312C637.818 554.752 637.716 555.133 637.51 555.456C637.312 555.771 637.023 556.039 636.641 556.259ZM641.075 561.099C640.51 561.099 640.114 560.934 639.887 560.604C639.659 560.274 639.546 559.845 639.546 559.317V556.391H638.754V555.709L639.59 555.654L639.7 553.938H640.459V555.654H641.911V556.391H640.459V559.328C640.459 559.651 640.517 559.904 640.635 560.087C640.759 560.27 640.976 560.362 641.284 560.362C641.379 560.362 641.478 560.355 641.581 560.34C641.683 560.318 641.786 560.281 641.889 560.23L642.087 560.868C641.947 560.934 641.79 560.989 641.614 561.033C641.438 561.077 641.258 561.099 641.075 561.099ZM645.42 561V553.168H646.322V555.302L646.289 556.402C646.546 556.16 646.814 555.955 647.092 555.786C647.378 555.61 647.705 555.522 648.071 555.522C648.636 555.522 649.047 555.702 649.303 556.061C649.567 556.413 649.699 556.93 649.699 557.612V561H648.797V557.733C648.797 557.227 648.717 556.864 648.555 556.644C648.401 556.417 648.145 556.303 647.785 556.303C647.514 556.303 647.268 556.373 647.048 556.512C646.836 556.651 646.594 556.857 646.322 557.128V561H645.42ZM652.691 561.132C652.398 561.132 652.13 561.073 651.888 560.956C651.653 560.831 651.466 560.659 651.327 560.439C651.188 560.212 651.118 559.937 651.118 559.614C651.118 559.013 651.382 558.558 651.91 558.25C652.438 557.942 653.274 557.726 654.418 557.601C654.411 557.381 654.374 557.168 654.308 556.963C654.249 556.758 654.139 556.593 653.978 556.468C653.817 556.343 653.593 556.281 653.307 556.281C652.999 556.281 652.709 556.34 652.438 556.457C652.167 556.567 651.925 556.692 651.712 556.831L651.36 556.215C651.521 556.105 651.712 555.999 651.932 555.896C652.152 555.786 652.39 555.698 652.647 555.632C652.904 555.559 653.175 555.522 653.461 555.522C653.894 555.522 654.246 555.614 654.517 555.797C654.796 555.973 654.997 556.226 655.122 556.556C655.254 556.886 655.32 557.275 655.32 557.722V561H654.572L654.495 560.362H654.462C654.205 560.575 653.93 560.758 653.637 560.912C653.344 561.059 653.028 561.132 652.691 561.132ZM652.944 560.384C653.208 560.384 653.454 560.325 653.681 560.208C653.916 560.091 654.161 559.918 654.418 559.691V558.25C653.817 558.323 653.34 558.419 652.988 558.536C652.643 558.646 652.394 558.785 652.24 558.954C652.086 559.123 652.009 559.324 652.009 559.559C652.009 559.852 652.101 560.065 652.284 560.197C652.467 560.322 652.687 560.384 652.944 560.384ZM658.212 561L656.287 555.654H657.222L658.234 558.69C658.315 558.947 658.395 559.211 658.476 559.482C658.564 559.746 658.648 560.006 658.729 560.263H658.773C658.846 560.006 658.927 559.746 659.015 559.482C659.103 559.211 659.184 558.947 659.257 558.69L660.269 555.654H661.16L659.268 561H658.212ZM664.371 561.132C663.894 561.132 663.458 561.022 663.062 560.802C662.673 560.575 662.365 560.256 662.138 559.845C661.91 559.427 661.797 558.921 661.797 558.327C661.797 557.748 661.914 557.249 662.149 556.831C662.383 556.413 662.684 556.09 663.051 555.863C663.417 555.636 663.806 555.522 664.217 555.522C664.671 555.522 665.056 555.628 665.372 555.841C665.694 556.046 665.936 556.336 666.098 556.71C666.259 557.084 666.34 557.524 666.34 558.03C666.34 558.125 666.336 558.217 666.329 558.305C666.329 558.393 666.318 558.481 666.296 558.569H662.446V557.854H665.526C665.526 557.341 665.412 556.948 665.185 556.677C664.965 556.398 664.646 556.259 664.228 556.259C663.986 556.259 663.747 556.329 663.513 556.468C663.278 556.6 663.084 556.816 662.93 557.117C662.783 557.418 662.71 557.817 662.71 558.316C662.71 558.771 662.787 559.152 662.941 559.46C663.102 559.768 663.318 560.003 663.59 560.164C663.861 560.318 664.158 560.395 664.481 560.395C664.737 560.395 664.976 560.358 665.196 560.285C665.423 560.212 665.628 560.113 665.812 559.988L666.142 560.582C665.907 560.743 665.643 560.875 665.35 560.978C665.064 561.081 664.737 561.132 664.371 561.132ZM671.205 561.132C670.911 561.132 670.644 561.073 670.402 560.956C670.167 560.831 669.98 560.659 669.841 560.439C669.701 560.212 669.632 559.937 669.632 559.614C669.632 559.013 669.896 558.558 670.424 558.25C670.952 557.942 671.788 557.726 672.932 557.601C672.924 557.381 672.888 557.168 672.822 556.963C672.763 556.758 672.653 556.593 672.492 556.468C672.33 556.343 672.107 556.281 671.821 556.281C671.513 556.281 671.223 556.34 670.952 556.457C670.68 556.567 670.438 556.692 670.226 556.831L669.874 556.215C670.035 556.105 670.226 555.999 670.446 555.896C670.666 555.786 670.904 555.698 671.161 555.632C671.417 555.559 671.689 555.522 671.975 555.522C672.407 555.522 672.759 555.614 673.031 555.797C673.309 555.973 673.511 556.226 673.636 556.556C673.768 556.886 673.834 557.275 673.834 557.722V561H673.086L673.009 560.362H672.976C672.719 560.575 672.444 560.758 672.151 560.912C671.857 561.059 671.542 561.132 671.205 561.132ZM671.458 560.384C671.722 560.384 671.967 560.325 672.195 560.208C672.429 560.091 672.675 559.918 672.932 559.691V558.25C672.33 558.323 671.854 558.419 671.502 558.536C671.157 558.646 670.908 558.785 670.754 558.954C670.6 559.123 670.523 559.324 670.523 559.559C670.523 559.852 670.614 560.065 670.798 560.197C670.981 560.322 671.201 560.384 671.458 560.384ZM675.571 561V555.654H676.319L676.396 556.424H676.429C676.685 556.167 676.957 555.955 677.243 555.786C677.529 555.61 677.855 555.522 678.222 555.522C678.786 555.522 679.197 555.702 679.454 556.061C679.718 556.413 679.85 556.93 679.85 557.612V561H678.948V557.733C678.948 557.227 678.867 556.864 678.706 556.644C678.552 556.417 678.295 556.303 677.936 556.303C677.664 556.303 677.419 556.373 677.199 556.512C676.986 556.651 676.744 556.857 676.473 557.128V561H675.571ZM685.131 561.132C684.837 561.132 684.57 561.073 684.328 560.956C684.093 560.831 683.906 560.659 683.767 560.439C683.627 560.212 683.558 559.937 683.558 559.614C683.558 559.013 683.822 558.558 684.35 558.25C684.878 557.942 685.714 557.726 686.858 557.601C686.85 557.381 686.814 557.168 686.748 556.963C686.689 556.758 686.579 556.593 686.418 556.468C686.256 556.343 686.033 556.281 685.747 556.281C685.439 556.281 685.149 556.34 684.878 556.457C684.606 556.567 684.364 556.692 684.152 556.831L683.8 556.215C683.961 556.105 684.152 555.999 684.372 555.896C684.592 555.786 684.83 555.698 685.087 555.632C685.343 555.559 685.615 555.522 685.901 555.522C686.333 555.522 686.685 555.614 686.957 555.797C687.235 555.973 687.437 556.226 687.562 556.556C687.694 556.886 687.76 557.275 687.76 557.722V561H687.012L686.935 560.362H686.902C686.645 560.575 686.37 560.758 686.077 560.912C685.783 561.059 685.468 561.132 685.131 561.132ZM685.384 560.384C685.648 560.384 685.893 560.325 686.121 560.208C686.355 560.091 686.601 559.918 686.858 559.691V558.25C686.256 558.323 685.78 558.419 685.428 558.536C685.083 558.646 684.834 558.785 684.68 558.954C684.526 559.123 684.449 559.324 684.449 559.559C684.449 559.852 684.54 560.065 684.724 560.197C684.907 560.322 685.127 560.384 685.384 560.384ZM691.62 561.132C691.143 561.132 690.714 561.022 690.333 560.802C689.951 560.582 689.651 560.263 689.431 559.845C689.211 559.427 689.101 558.925 689.101 558.338C689.101 557.737 689.218 557.227 689.453 556.809C689.695 556.391 690.01 556.072 690.399 555.852C690.795 555.632 691.22 555.522 691.675 555.522C692.027 555.522 692.327 555.581 692.577 555.698C692.833 555.815 693.053 555.966 693.237 556.149L692.786 556.71C692.654 556.578 692.496 556.475 692.313 556.402C692.137 556.321 691.935 556.281 691.708 556.281C691.392 556.281 691.106 556.369 690.85 556.545C690.6 556.714 690.402 556.952 690.256 557.26C690.109 557.568 690.036 557.927 690.036 558.338C690.036 558.741 690.105 559.097 690.245 559.405C690.384 559.713 690.578 559.955 690.828 560.131C691.077 560.3 691.367 560.384 691.697 560.384C691.946 560.384 692.177 560.336 692.39 560.241C692.602 560.146 692.786 560.025 692.94 559.878L693.336 560.428C693.108 560.641 692.852 560.813 692.566 560.945C692.28 561.07 691.964 561.132 691.62 561.132ZM696.466 561.132C695.989 561.132 695.56 561.022 695.179 560.802C694.797 560.582 694.497 560.263 694.277 559.845C694.057 559.427 693.947 558.925 693.947 558.338C693.947 557.737 694.064 557.227 694.299 556.809C694.541 556.391 694.856 556.072 695.245 555.852C695.641 555.632 696.066 555.522 696.521 555.522C696.873 555.522 697.173 555.581 697.423 555.698C697.679 555.815 697.899 555.966 698.083 556.149L697.632 556.71C697.5 556.578 697.342 556.475 697.159 556.402C696.983 556.321 696.781 556.281 696.554 556.281C696.238 556.281 695.952 556.369 695.696 556.545C695.446 556.714 695.248 556.952 695.102 557.26C694.955 557.568 694.882 557.927 694.882 558.338C694.882 558.741 694.951 559.097 695.091 559.405C695.23 559.713 695.424 559.955 695.674 560.131C695.923 560.3 696.213 560.384 696.543 560.384C696.792 560.384 697.023 560.336 697.236 560.241C697.448 560.146 697.632 560.025 697.786 559.878L698.182 560.428C697.954 560.641 697.698 560.813 697.412 560.945C697.126 561.07 696.81 561.132 696.466 561.132ZM701.268 561.132C700.835 561.132 700.428 561.022 700.047 560.802C699.673 560.582 699.368 560.263 699.134 559.845C698.906 559.427 698.793 558.925 698.793 558.338C698.793 557.737 698.906 557.227 699.134 556.809C699.368 556.391 699.673 556.072 700.047 555.852C700.428 555.632 700.835 555.522 701.268 555.522C701.708 555.522 702.115 555.632 702.489 555.852C702.863 556.072 703.163 556.391 703.391 556.809C703.625 557.227 703.743 557.737 703.743 558.338C703.743 558.925 703.625 559.427 703.391 559.845C703.163 560.263 702.863 560.582 702.489 560.802C702.115 561.022 701.708 561.132 701.268 561.132ZM701.268 560.384C701.576 560.384 701.847 560.3 702.082 560.131C702.316 559.955 702.496 559.713 702.621 559.405C702.745 559.097 702.808 558.741 702.808 558.338C702.808 557.927 702.745 557.568 702.621 557.26C702.496 556.945 702.316 556.703 702.082 556.534C701.847 556.358 701.576 556.27 701.268 556.27C700.96 556.27 700.688 556.358 700.454 556.534C700.226 556.703 700.047 556.945 699.915 557.26C699.79 557.568 699.728 557.927 699.728 558.338C699.728 558.741 699.79 559.097 699.915 559.405C700.047 559.713 700.226 559.955 700.454 560.131C700.688 560.3 700.96 560.384 701.268 560.384ZM706.767 561.132C706.203 561.132 705.788 560.956 705.524 560.604C705.268 560.245 705.139 559.724 705.139 559.042V555.654H706.041V558.921C706.041 559.42 706.118 559.783 706.272 560.01C706.434 560.23 706.69 560.34 707.042 560.34C707.314 560.34 707.556 560.27 707.768 560.131C707.988 559.984 708.227 559.757 708.483 559.449V555.654H709.385V561H708.637L708.56 560.164H708.527C708.285 560.457 708.021 560.692 707.735 560.868C707.457 561.044 707.134 561.132 706.767 561.132ZM711.244 561V555.654H711.992L712.069 556.424H712.102C712.359 556.167 712.63 555.955 712.916 555.786C713.202 555.61 713.528 555.522 713.895 555.522C714.46 555.522 714.87 555.702 715.127 556.061C715.391 556.413 715.523 556.93 715.523 557.612V561H714.621V557.733C714.621 557.227 714.54 556.864 714.379 556.644C714.225 556.417 713.968 556.303 713.609 556.303C713.338 556.303 713.092 556.373 712.872 556.512C712.659 556.651 712.417 556.857 712.146 557.128V561H711.244ZM718.997 561.099C718.433 561.099 718.037 560.934 717.809 560.604C717.582 560.274 717.468 559.845 717.468 559.317V556.391H716.676V555.709L717.512 555.654L717.622 553.938H718.381V555.654H719.833V556.391H718.381V559.328C718.381 559.651 718.44 559.904 718.557 560.087C718.682 560.27 718.898 560.362 719.206 560.362C719.302 560.362 719.401 560.355 719.503 560.34C719.606 560.318 719.709 560.281 719.811 560.23L720.009 560.868C719.87 560.934 719.712 560.989 719.536 561.033C719.36 561.077 719.181 561.099 718.997 561.099ZM723.431 563.299C723.314 563.299 723.2 563.288 723.09 563.266C722.988 563.244 722.892 563.218 722.804 563.189L723.002 562.485C723.068 562.507 723.134 562.522 723.2 562.529C723.266 562.544 723.329 562.551 723.387 562.551C723.695 562.551 723.945 562.441 724.135 562.221C724.333 562.008 724.487 561.737 724.597 561.407L724.718 561.011L722.573 555.654H723.508L724.597 558.613C724.685 558.84 724.773 559.086 724.861 559.35C724.949 559.614 725.034 559.871 725.114 560.12H725.158C725.239 559.871 725.316 559.618 725.389 559.361C725.47 559.097 725.543 558.848 725.609 558.613L726.566 555.654H727.446L725.433 561.44C725.309 561.792 725.158 562.107 724.982 562.386C724.806 562.672 724.594 562.896 724.344 563.057C724.095 563.218 723.791 563.299 723.431 563.299ZM730.657 561.132C730.181 561.132 729.744 561.022 729.348 560.802C728.96 560.575 728.652 560.256 728.424 559.845C728.197 559.427 728.083 558.921 728.083 558.327C728.083 557.748 728.201 557.249 728.435 556.831C728.67 556.413 728.971 556.09 729.337 555.863C729.704 555.636 730.093 555.522 730.503 555.522C730.958 555.522 731.343 555.628 731.658 555.841C731.981 556.046 732.223 556.336 732.384 556.71C732.546 557.084 732.626 557.524 732.626 558.03C732.626 558.125 732.623 558.217 732.615 558.305C732.615 558.393 732.604 558.481 732.582 558.569H728.732V557.854H731.812C731.812 557.341 731.699 556.948 731.471 556.677C731.251 556.398 730.932 556.259 730.514 556.259C730.272 556.259 730.034 556.329 729.799 556.468C729.565 556.6 729.37 556.816 729.216 557.117C729.07 557.418 728.996 557.817 728.996 558.316C728.996 558.771 729.073 559.152 729.227 559.46C729.389 559.768 729.605 560.003 729.876 560.164C730.148 560.318 730.445 560.395 730.767 560.395C731.024 560.395 731.262 560.358 731.482 560.285C731.71 560.212 731.915 560.113 732.098 559.988L732.428 560.582C732.194 560.743 731.93 560.875 731.636 560.978C731.35 561.081 731.024 561.132 730.657 561.132ZM735.578 561.099C735.013 561.099 734.617 560.934 734.39 560.604C734.163 560.274 734.049 559.845 734.049 559.317V556.391H733.257V555.709L734.093 555.654L734.203 553.938H734.962V555.654H736.414V556.391H734.962V559.328C734.962 559.651 735.021 559.904 735.138 560.087C735.263 560.27 735.479 560.362 735.787 560.362C735.882 560.362 735.981 560.355 736.084 560.34C736.187 560.318 736.289 560.281 736.392 560.23L736.59 560.868C736.451 560.934 736.293 560.989 736.117 561.033C735.941 561.077 735.761 561.099 735.578 561.099ZM738.245 558.822C738.194 558.477 738.212 558.173 738.3 557.909C738.388 557.638 738.509 557.396 738.663 557.183C738.825 556.963 738.986 556.754 739.147 556.556C739.316 556.358 739.459 556.16 739.576 555.962C739.694 555.764 739.752 555.548 739.752 555.313C739.752 555.115 739.712 554.935 739.631 554.774C739.551 554.613 739.43 554.484 739.268 554.389C739.114 554.294 738.92 554.246 738.685 554.246C738.451 554.246 738.223 554.305 738.003 554.422C737.791 554.532 737.596 554.686 737.42 554.884L736.903 554.411C737.138 554.147 737.409 553.931 737.717 553.762C738.033 553.586 738.392 553.498 738.795 553.498C739.162 553.498 739.485 553.571 739.763 553.718C740.042 553.857 740.255 554.059 740.401 554.323C740.555 554.58 740.632 554.891 740.632 555.258C740.632 555.544 740.574 555.804 740.456 556.039C740.339 556.266 740.192 556.486 740.016 556.699C739.848 556.904 739.683 557.113 739.521 557.326C739.36 557.531 739.232 557.755 739.136 557.997C739.041 558.239 739.008 558.514 739.037 558.822H738.245ZM738.663 561.132C738.487 561.132 738.333 561.07 738.201 560.945C738.077 560.813 738.014 560.648 738.014 560.45C738.014 560.237 738.077 560.069 738.201 559.944C738.333 559.812 738.487 559.746 738.663 559.746C738.847 559.746 739.001 559.812 739.125 559.944C739.257 560.069 739.323 560.237 739.323 560.45C739.323 560.648 739.257 560.813 739.125 560.945C739.001 561.07 738.847 561.132 738.663 561.132Z" fill="#BC8A66"/>
<path d="M609.99 438V430.784H612.245C612.736 430.784 613.173 430.85 613.554 430.982C613.935 431.107 614.232 431.319 614.445 431.62C614.665 431.913 614.775 432.309 614.775 432.808C614.775 433.292 614.665 433.692 614.445 434.007C614.232 434.322 613.935 434.561 613.554 434.722C613.173 434.876 612.736 434.953 612.245 434.953H610.903V438H609.99ZM610.903 434.205H612.113C612.678 434.205 613.11 434.091 613.411 433.864C613.712 433.629 613.862 433.277 613.862 432.808C613.862 432.339 613.712 432.009 613.411 431.818C613.11 431.62 612.678 431.521 612.113 431.521H610.903V434.205ZM613.95 438L612.069 434.7L612.784 434.216L614.984 438H613.95ZM618.279 438.132C617.803 438.132 617.366 438.022 616.97 437.802C616.582 437.575 616.274 437.256 616.046 436.845C615.819 436.427 615.705 435.921 615.705 435.327C615.705 434.748 615.823 434.249 616.057 433.831C616.292 433.413 616.593 433.09 616.959 432.863C617.326 432.636 617.715 432.522 618.125 432.522C618.58 432.522 618.965 432.628 619.28 432.841C619.603 433.046 619.845 433.336 620.006 433.71C620.168 434.084 620.248 434.524 620.248 435.03C620.248 435.125 620.245 435.217 620.237 435.305C620.237 435.393 620.226 435.481 620.204 435.569H616.354V434.854H619.434C619.434 434.341 619.321 433.948 619.093 433.677C618.873 433.398 618.554 433.259 618.136 433.259C617.894 433.259 617.656 433.329 617.421 433.468C617.187 433.6 616.992 433.816 616.838 434.117C616.692 434.418 616.618 434.817 616.618 435.316C616.618 435.771 616.695 436.152 616.849 436.46C617.011 436.768 617.227 437.003 617.498 437.164C617.77 437.318 618.067 437.395 618.389 437.395C618.646 437.395 618.884 437.358 619.104 437.285C619.332 437.212 619.537 437.113 619.72 436.988L620.05 437.582C619.816 437.743 619.552 437.875 619.258 437.978C618.972 438.081 618.646 438.132 618.279 438.132ZM621.624 438V432.654H622.372L622.449 433.424H622.482C622.717 433.175 622.97 432.962 623.241 432.786C623.52 432.61 623.821 432.522 624.143 432.522C624.554 432.522 624.873 432.614 625.1 432.797C625.335 432.98 625.507 433.23 625.617 433.545C625.896 433.237 626.178 432.991 626.464 432.808C626.75 432.617 627.055 432.522 627.377 432.522C627.935 432.522 628.345 432.702 628.609 433.061C628.873 433.413 629.005 433.93 629.005 434.612V438H628.103V434.733C628.103 434.227 628.023 433.864 627.861 433.644C627.7 433.417 627.451 433.303 627.113 433.303C626.901 433.303 626.684 433.373 626.464 433.512C626.252 433.644 626.021 433.849 625.771 434.128V438H624.869V434.733C624.869 434.227 624.789 433.864 624.627 433.644C624.466 433.417 624.213 433.303 623.868 433.303C623.465 433.303 623.018 433.578 622.526 434.128V438H621.624ZM632.966 438.132C632.49 438.132 632.053 438.022 631.657 437.802C631.269 437.575 630.961 437.256 630.733 436.845C630.506 436.427 630.392 435.921 630.392 435.327C630.392 434.748 630.51 434.249 630.744 433.831C630.979 433.413 631.28 433.09 631.646 432.863C632.013 432.636 632.402 432.522 632.812 432.522C633.267 432.522 633.652 432.628 633.967 432.841C634.29 433.046 634.532 433.336 634.693 433.71C634.855 434.084 634.935 434.524 634.935 435.03C634.935 435.125 634.932 435.217 634.924 435.305C634.924 435.393 634.913 435.481 634.891 435.569H631.041V434.854H634.121C634.121 434.341 634.008 433.948 633.78 433.677C633.56 433.398 633.241 433.259 632.823 433.259C632.581 433.259 632.343 433.329 632.108 433.468C631.874 433.6 631.679 433.816 631.525 434.117C631.379 434.418 631.305 434.817 631.305 435.316C631.305 435.771 631.382 436.152 631.536 436.46C631.698 436.768 631.914 437.003 632.185 437.164C632.457 437.318 632.754 437.395 633.076 437.395C633.333 437.395 633.571 437.358 633.791 437.285C634.019 437.212 634.224 437.113 634.407 436.988L634.737 437.582C634.503 437.743 634.239 437.875 633.945 437.978C633.659 438.081 633.333 438.132 632.966 438.132ZM636.311 438V432.654H637.059L637.136 433.424H637.169C637.404 433.175 637.657 432.962 637.928 432.786C638.207 432.61 638.508 432.522 638.83 432.522C639.241 432.522 639.56 432.614 639.787 432.797C640.022 432.98 640.194 433.23 640.304 433.545C640.583 433.237 640.865 432.991 641.151 432.808C641.437 432.617 641.742 432.522 642.064 432.522C642.622 432.522 643.032 432.702 643.296 433.061C643.56 433.413 643.692 433.93 643.692 434.612V438H642.79V434.733C642.79 434.227 642.71 433.864 642.548 433.644C642.387 433.417 642.138 433.303 641.8 433.303C641.588 433.303 641.371 433.373 641.151 433.512C640.939 433.644 640.708 433.849 640.458 434.128V438H639.556V434.733C639.556 434.227 639.476 433.864 639.314 433.644C639.153 433.417 638.9 433.303 638.555 433.303C638.152 433.303 637.705 433.578 637.213 434.128V438H636.311ZM647.852 438.132C647.602 438.132 647.346 438.073 647.082 437.956C646.818 437.831 646.565 437.663 646.323 437.45H646.29L646.213 438H645.487V430.168H646.389V432.302L646.367 433.27C646.609 433.057 646.873 432.881 647.159 432.742C647.452 432.595 647.745 432.522 648.039 432.522C648.501 432.522 648.889 432.636 649.205 432.863C649.52 433.083 649.758 433.398 649.92 433.809C650.081 434.212 650.162 434.689 650.162 435.239C650.162 435.848 650.052 436.368 649.832 436.801C649.619 437.234 649.337 437.564 648.985 437.791C648.633 438.018 648.255 438.132 647.852 438.132ZM647.698 437.373C647.991 437.373 648.251 437.289 648.479 437.12C648.713 436.951 648.897 436.709 649.029 436.394C649.161 436.071 649.227 435.69 649.227 435.25C649.227 434.861 649.179 434.52 649.084 434.227C648.988 433.926 648.838 433.695 648.633 433.534C648.427 433.365 648.156 433.281 647.819 433.281C647.599 433.281 647.368 433.343 647.126 433.468C646.891 433.585 646.645 433.765 646.389 434.007V436.812C646.623 437.017 646.854 437.164 647.082 437.252C647.316 437.333 647.522 437.373 647.698 437.373ZM653.789 438.132C653.312 438.132 652.876 438.022 652.48 437.802C652.091 437.575 651.783 437.256 651.556 436.845C651.328 436.427 651.215 435.921 651.215 435.327C651.215 434.748 651.332 434.249 651.567 433.831C651.801 433.413 652.102 433.09 652.469 432.863C652.835 432.636 653.224 432.522 653.635 432.522C654.089 432.522 654.474 432.628 654.79 432.841C655.112 433.046 655.354 433.336 655.516 433.71C655.677 434.084 655.758 434.524 655.758 435.03C655.758 435.125 655.754 435.217 655.747 435.305C655.747 435.393 655.736 435.481 655.714 435.569H651.864V434.854H654.944C654.944 434.341 654.83 433.948 654.603 433.677C654.383 433.398 654.064 433.259 653.646 433.259C653.404 433.259 653.165 433.329 652.931 433.468C652.696 433.6 652.502 433.816 652.348 434.117C652.201 434.418 652.128 434.817 652.128 435.316C652.128 435.771 652.205 436.152 652.359 436.46C652.52 436.768 652.736 437.003 653.008 437.164C653.279 437.318 653.576 437.395 653.899 437.395C654.155 437.395 654.394 437.358 654.614 437.285C654.841 437.212 655.046 437.113 655.23 436.988L655.56 437.582C655.325 437.743 655.061 437.875 654.768 437.978C654.482 438.081 654.155 438.132 653.789 438.132ZM657.134 438V432.654H657.882L657.959 433.622H657.992C658.168 433.285 658.388 433.017 658.652 432.819C658.916 432.621 659.202 432.522 659.51 432.522C659.627 432.522 659.73 432.529 659.818 432.544C659.906 432.559 659.994 432.588 660.082 432.632L659.884 433.402C659.803 433.38 659.726 433.365 659.653 433.358C659.587 433.343 659.499 433.336 659.389 433.336C659.161 433.336 658.923 433.428 658.674 433.611C658.432 433.794 658.219 434.113 658.036 434.568V438H657.134ZM663.259 438V432.654H664.007L664.084 433.424H664.117C664.352 433.175 664.605 432.962 664.876 432.786C665.155 432.61 665.456 432.522 665.778 432.522C666.189 432.522 666.508 432.614 666.735 432.797C666.97 432.98 667.142 433.23 667.252 433.545C667.531 433.237 667.813 432.991 668.099 432.808C668.385 432.617 668.69 432.522 669.012 432.522C669.57 432.522 669.98 432.702 670.244 433.061C670.508 433.413 670.64 433.93 670.64 434.612V438H669.738V434.733C669.738 434.227 669.658 433.864 669.496 433.644C669.335 433.417 669.086 433.303 668.748 433.303C668.536 433.303 668.319 433.373 668.099 433.512C667.887 433.644 667.656 433.849 667.406 434.128V438H666.504V434.733C666.504 434.227 666.424 433.864 666.262 433.644C666.101 433.417 665.848 433.303 665.503 433.303C665.1 433.303 664.653 433.578 664.161 434.128V438H663.259ZM674.601 438.132C674.125 438.132 673.688 438.022 673.292 437.802C672.904 437.575 672.596 437.256 672.368 436.845C672.141 436.427 672.027 435.921 672.027 435.327C672.027 434.748 672.145 434.249 672.379 433.831C672.614 433.413 672.915 433.09 673.281 432.863C673.648 432.636 674.037 432.522 674.447 432.522C674.902 432.522 675.287 432.628 675.602 432.841C675.925 433.046 676.167 433.336 676.328 433.71C676.49 434.084 676.57 434.524 676.57 435.03C676.57 435.125 676.567 435.217 676.559 435.305C676.559 435.393 676.548 435.481 676.526 435.569H672.676V434.854H675.756C675.756 434.341 675.643 433.948 675.415 433.677C675.195 433.398 674.876 433.259 674.458 433.259C674.216 433.259 673.978 433.329 673.743 433.468C673.509 433.6 673.314 433.816 673.16 434.117C673.014 434.418 672.94 434.817 672.94 435.316C672.94 435.771 673.017 436.152 673.171 436.46C673.333 436.768 673.549 437.003 673.82 437.164C674.092 437.318 674.389 437.395 674.711 437.395C674.968 437.395 675.206 437.358 675.426 437.285C675.654 437.212 675.859 437.113 676.042 436.988L676.372 437.582C676.138 437.743 675.874 437.875 675.58 437.978C675.294 438.081 674.968 438.132 674.601 438.132Z" fill="#BC8A66"/>
<path d="M773.99 438V430.784H778.148V431.554H774.903V433.996H777.653V434.766H774.903V438H773.99ZM781.321 438.132C780.888 438.132 780.481 438.022 780.1 437.802C779.726 437.582 779.422 437.263 779.187 436.845C778.96 436.427 778.846 435.925 778.846 435.338C778.846 434.737 778.96 434.227 779.187 433.809C779.422 433.391 779.726 433.072 780.1 432.852C780.481 432.632 780.888 432.522 781.321 432.522C781.761 432.522 782.168 432.632 782.542 432.852C782.916 433.072 783.217 433.391 783.444 433.809C783.679 434.227 783.796 434.737 783.796 435.338C783.796 435.925 783.679 436.427 783.444 436.845C783.217 437.263 782.916 437.582 782.542 437.802C782.168 438.022 781.761 438.132 781.321 438.132ZM781.321 437.384C781.629 437.384 781.9 437.3 782.135 437.131C782.37 436.955 782.549 436.713 782.674 436.405C782.799 436.097 782.861 435.741 782.861 435.338C782.861 434.927 782.799 434.568 782.674 434.26C782.549 433.945 782.37 433.703 782.135 433.534C781.9 433.358 781.629 433.27 781.321 433.27C781.013 433.27 780.742 433.358 780.507 433.534C780.28 433.703 780.1 433.945 779.968 434.26C779.843 434.568 779.781 434.927 779.781 435.338C779.781 435.741 779.843 436.097 779.968 436.405C780.1 436.713 780.28 436.955 780.507 437.131C780.742 437.3 781.013 437.384 781.321 437.384ZM785.259 438V432.654H786.007L786.084 433.622H786.117C786.293 433.285 786.513 433.017 786.777 432.819C787.041 432.621 787.327 432.522 787.635 432.522C787.752 432.522 787.855 432.529 787.943 432.544C788.031 432.559 788.119 432.588 788.207 432.632L788.009 433.402C787.928 433.38 787.851 433.365 787.778 433.358C787.712 433.343 787.624 433.336 787.514 433.336C787.287 433.336 787.048 433.428 786.799 433.611C786.557 433.794 786.344 434.113 786.161 434.568V438H785.259ZM790.824 440.464C790.391 440.464 790.006 440.405 789.669 440.288C789.339 440.178 789.079 440.017 788.888 439.804C788.705 439.591 788.613 439.331 788.613 439.023C788.613 438.796 788.683 438.576 788.822 438.363C788.961 438.158 789.152 437.974 789.394 437.813V437.769C789.262 437.681 789.148 437.567 789.053 437.428C788.965 437.281 788.921 437.105 788.921 436.9C788.921 436.673 788.983 436.475 789.108 436.306C789.24 436.137 789.372 436.005 789.504 435.91V435.866C789.335 435.719 789.178 435.521 789.031 435.272C788.884 435.023 788.811 434.74 788.811 434.425C788.811 434.036 788.903 433.699 789.086 433.413C789.277 433.127 789.522 432.907 789.823 432.753C790.131 432.599 790.465 432.522 790.824 432.522C790.971 432.522 791.11 432.537 791.242 432.566C791.374 432.588 791.488 432.617 791.583 432.654H793.442V433.347H792.331V433.391C792.463 433.508 792.569 433.655 792.65 433.831C792.738 434.007 792.782 434.216 792.782 434.458C792.782 434.839 792.694 435.169 792.518 435.448C792.342 435.719 792.107 435.932 791.814 436.086C791.521 436.233 791.191 436.306 790.824 436.306C790.692 436.306 790.556 436.291 790.417 436.262C790.278 436.225 790.146 436.178 790.021 436.119C789.933 436.2 789.852 436.288 789.779 436.383C789.713 436.478 789.68 436.603 789.68 436.757C789.68 436.926 789.746 437.065 789.878 437.175C790.017 437.285 790.267 437.34 790.626 437.34H791.66C792.283 437.34 792.749 437.443 793.057 437.648C793.372 437.846 793.53 438.169 793.53 438.616C793.53 438.946 793.42 439.25 793.2 439.529C792.98 439.808 792.665 440.031 792.254 440.2C791.851 440.376 791.374 440.464 790.824 440.464ZM790.824 435.701C791.029 435.701 791.216 435.65 791.385 435.547C791.561 435.437 791.7 435.287 791.803 435.096C791.906 434.905 791.957 434.682 791.957 434.425C791.957 434.029 791.847 433.725 791.627 433.512C791.407 433.292 791.139 433.182 790.824 433.182C790.509 433.182 790.241 433.292 790.021 433.512C789.801 433.725 789.691 434.029 789.691 434.425C789.691 434.682 789.742 434.905 789.845 435.096C789.948 435.287 790.083 435.437 790.252 435.547C790.428 435.65 790.619 435.701 790.824 435.701ZM790.956 439.837C791.293 439.837 791.587 439.786 791.836 439.683C792.093 439.58 792.291 439.445 792.43 439.276C792.577 439.107 792.65 438.931 792.65 438.748C792.65 438.499 792.555 438.326 792.364 438.231C792.181 438.136 791.917 438.088 791.572 438.088H790.648C790.545 438.088 790.432 438.081 790.307 438.066C790.19 438.051 790.072 438.029 789.955 438C789.757 438.139 789.614 438.286 789.526 438.44C789.445 438.594 789.405 438.748 789.405 438.902C789.405 439.188 789.541 439.415 789.812 439.584C790.091 439.753 790.472 439.837 790.956 439.837ZM796.547 438.132C796.114 438.132 795.707 438.022 795.326 437.802C794.952 437.582 794.647 437.263 794.413 436.845C794.185 436.427 794.072 435.925 794.072 435.338C794.072 434.737 794.185 434.227 794.413 433.809C794.647 433.391 794.952 433.072 795.326 432.852C795.707 432.632 796.114 432.522 796.547 432.522C796.987 432.522 797.394 432.632 797.768 432.852C798.142 433.072 798.442 433.391 798.67 433.809C798.904 434.227 799.022 434.737 799.022 435.338C799.022 435.925 798.904 436.427 798.67 436.845C798.442 437.263 798.142 437.582 797.768 437.802C797.394 438.022 796.987 438.132 796.547 438.132ZM796.547 437.384C796.855 437.384 797.126 437.3 797.361 437.131C797.595 436.955 797.775 436.713 797.9 436.405C798.024 436.097 798.087 435.741 798.087 435.338C798.087 434.927 798.024 434.568 797.9 434.26C797.775 433.945 797.595 433.703 797.361 433.534C797.126 433.358 796.855 433.27 796.547 433.27C796.239 433.27 795.967 433.358 795.733 433.534C795.505 433.703 795.326 433.945 795.194 434.26C795.069 434.568 795.007 434.927 795.007 435.338C795.007 435.741 795.069 436.097 795.194 436.405C795.326 436.713 795.505 436.955 795.733 437.131C795.967 437.3 796.239 437.384 796.547 437.384ZM801.974 438.099C801.41 438.099 801.014 437.934 800.786 437.604C800.559 437.274 800.445 436.845 800.445 436.317V433.391H799.653V432.709L800.489 432.654L800.599 430.938H801.358V432.654H802.81V433.391H801.358V436.328C801.358 436.651 801.417 436.904 801.534 437.087C801.659 437.27 801.875 437.362 802.183 437.362C802.279 437.362 802.378 437.355 802.48 437.34C802.583 437.318 802.686 437.281 802.788 437.23L802.986 437.868C802.847 437.934 802.689 437.989 802.513 438.033C802.337 438.077 802.158 438.099 801.974 438.099ZM806.32 440.255V432.654H807.068L807.145 433.27H807.178C807.42 433.065 807.688 432.889 807.981 432.742C808.275 432.595 808.575 432.522 808.883 432.522C809.338 432.522 809.723 432.636 810.038 432.863C810.354 433.083 810.592 433.398 810.753 433.809C810.915 434.212 810.995 434.693 810.995 435.25C810.995 435.851 810.885 436.368 810.665 436.801C810.453 437.234 810.17 437.564 809.818 437.791C809.466 438.018 809.089 438.132 808.685 438.132C808.443 438.132 808.198 438.077 807.948 437.967C807.699 437.857 807.45 437.707 807.2 437.516L807.222 438.451V440.255H806.32ZM808.531 437.373C808.825 437.373 809.085 437.289 809.312 437.12C809.547 436.951 809.73 436.709 809.862 436.394C809.994 436.071 810.06 435.69 810.06 435.25C810.06 434.861 810.013 434.52 809.917 434.227C809.822 433.926 809.672 433.695 809.466 433.534C809.261 433.365 808.99 433.281 808.652 433.281C808.432 433.281 808.205 433.343 807.97 433.468C807.736 433.585 807.486 433.765 807.222 434.007V436.812C807.472 437.017 807.706 437.164 807.926 437.252C808.154 437.333 808.355 437.373 808.531 437.373ZM813.558 438.132C813.265 438.132 812.997 438.073 812.755 437.956C812.521 437.831 812.334 437.659 812.194 437.439C812.055 437.212 811.985 436.937 811.985 436.614C811.985 436.013 812.249 435.558 812.777 435.25C813.305 434.942 814.141 434.726 815.285 434.601C815.278 434.381 815.241 434.168 815.175 433.963C815.117 433.758 815.007 433.593 814.845 433.468C814.684 433.343 814.46 433.281 814.174 433.281C813.866 433.281 813.577 433.34 813.305 433.457C813.034 433.567 812.792 433.692 812.579 433.831L812.227 433.215C812.389 433.105 812.579 432.999 812.799 432.896C813.019 432.786 813.258 432.698 813.514 432.632C813.771 432.559 814.042 432.522 814.328 432.522C814.761 432.522 815.113 432.614 815.384 432.797C815.663 432.973 815.865 433.226 815.989 433.556C816.121 433.886 816.187 434.275 816.187 434.722V438H815.439L815.362 437.362H815.329C815.073 437.575 814.798 437.758 814.504 437.912C814.211 438.059 813.896 438.132 813.558 438.132ZM813.811 437.384C814.075 437.384 814.321 437.325 814.548 437.208C814.783 437.091 815.029 436.918 815.285 436.691V435.25C814.684 435.323 814.207 435.419 813.855 435.536C813.511 435.646 813.261 435.785 813.107 435.954C812.953 436.123 812.876 436.324 812.876 436.559C812.876 436.852 812.968 437.065 813.151 437.197C813.335 437.322 813.555 437.384 813.811 437.384ZM819.321 438.132C818.933 438.132 818.562 438.066 818.21 437.934C817.866 437.795 817.572 437.604 817.33 437.362L817.748 436.834C817.983 437.025 818.225 437.171 818.474 437.274C818.731 437.377 819.024 437.428 819.354 437.428C819.706 437.428 819.97 437.347 820.146 437.186C820.322 437.017 820.41 436.819 820.41 436.592C820.41 436.409 820.348 436.258 820.223 436.141C820.106 436.016 819.956 435.914 819.772 435.833C819.596 435.745 819.406 435.664 819.2 435.591C818.936 435.496 818.683 435.386 818.441 435.261C818.199 435.129 818.001 434.968 817.847 434.777C817.701 434.579 817.627 434.333 817.627 434.04C817.627 433.607 817.789 433.248 818.111 432.962C818.441 432.669 818.896 432.522 819.475 432.522C819.805 432.522 820.113 432.581 820.399 432.698C820.685 432.808 820.931 432.951 821.136 433.127L820.718 433.644C820.528 433.512 820.333 433.409 820.135 433.336C819.937 433.263 819.717 433.226 819.475 433.226C819.138 433.226 818.889 433.303 818.727 433.457C818.573 433.611 818.496 433.791 818.496 433.996C818.496 434.157 818.544 434.293 818.639 434.403C818.735 434.506 818.867 434.597 819.035 434.678C819.211 434.759 819.409 434.836 819.629 434.909C819.908 435.012 820.172 435.129 820.421 435.261C820.678 435.386 820.883 435.551 821.037 435.756C821.199 435.954 821.279 436.214 821.279 436.537C821.279 436.83 821.202 437.098 821.048 437.34C820.902 437.575 820.682 437.765 820.388 437.912C820.102 438.059 819.747 438.132 819.321 438.132ZM823.985 438.132C823.596 438.132 823.226 438.066 822.874 437.934C822.529 437.795 822.236 437.604 821.994 437.362L822.412 436.834C822.646 437.025 822.888 437.171 823.138 437.274C823.394 437.377 823.688 437.428 824.018 437.428C824.37 437.428 824.634 437.347 824.81 437.186C824.986 437.017 825.074 436.819 825.074 436.592C825.074 436.409 825.011 436.258 824.887 436.141C824.769 436.016 824.619 435.914 824.436 435.833C824.26 435.745 824.069 435.664 823.864 435.591C823.6 435.496 823.347 435.386 823.105 435.261C822.863 435.129 822.665 434.968 822.511 434.777C822.364 434.579 822.291 434.333 822.291 434.04C822.291 433.607 822.452 433.248 822.775 432.962C823.105 432.669 823.559 432.522 824.139 432.522C824.469 432.522 824.777 432.581 825.063 432.698C825.349 432.808 825.594 432.951 825.8 433.127L825.382 433.644C825.191 433.512 824.997 433.409 824.799 433.336C824.601 433.263 824.381 433.226 824.139 433.226C823.801 433.226 823.552 433.303 823.391 433.457C823.237 433.611 823.16 433.791 823.16 433.996C823.16 434.157 823.207 434.293 823.303 434.403C823.398 434.506 823.53 434.597 823.699 434.678C823.875 434.759 824.073 434.836 824.293 434.909C824.571 435.012 824.835 435.129 825.085 435.261C825.341 435.386 825.547 435.551 825.701 435.756C825.862 435.954 825.943 436.214 825.943 436.537C825.943 436.83 825.866 437.098 825.712 437.34C825.565 437.575 825.345 437.765 825.052 437.912C824.766 438.059 824.41 438.132 823.985 438.132ZM828.098 438L826.613 432.654H827.559L828.34 435.745C828.399 435.987 828.454 436.229 828.505 436.471C828.556 436.713 828.604 436.977 828.648 437.263H828.692C828.751 436.977 828.806 436.713 828.857 436.471C828.916 436.229 828.974 435.987 829.033 435.745L829.825 432.654H830.815L831.618 435.745C831.684 435.987 831.743 436.229 831.794 436.471C831.853 436.713 831.911 436.977 831.97 437.263H832.014C832.073 436.977 832.128 436.713 832.179 436.471C832.23 436.229 832.282 435.987 832.333 435.745L833.114 432.654H833.994L832.553 438H831.376L830.661 435.14C830.602 434.891 830.544 434.645 830.485 434.403C830.434 434.154 830.379 433.871 830.32 433.556H830.276C830.225 433.871 830.17 434.154 830.111 434.403C830.06 434.652 830.001 434.898 829.935 435.14L829.22 438H828.098ZM837.248 438.132C836.816 438.132 836.409 438.022 836.027 437.802C835.653 437.582 835.349 437.263 835.114 436.845C834.887 436.427 834.773 435.925 834.773 435.338C834.773 434.737 834.887 434.227 835.114 433.809C835.349 433.391 835.653 433.072 836.027 432.852C836.409 432.632 836.816 432.522 837.248 432.522C837.688 432.522 838.095 432.632 838.469 432.852C838.843 433.072 839.144 433.391 839.371 433.809C839.606 434.227 839.723 434.737 839.723 435.338C839.723 435.925 839.606 436.427 839.371 436.845C839.144 437.263 838.843 437.582 838.469 437.802C838.095 438.022 837.688 438.132 837.248 438.132ZM837.248 437.384C837.556 437.384 837.828 437.3 838.062 437.131C838.297 436.955 838.477 436.713 838.601 436.405C838.726 436.097 838.788 435.741 838.788 435.338C838.788 434.927 838.726 434.568 838.601 434.26C838.477 433.945 838.297 433.703 838.062 433.534C837.828 433.358 837.556 433.27 837.248 433.27C836.94 433.27 836.669 433.358 836.434 433.534C836.207 433.703 836.027 433.945 835.895 434.26C835.771 434.568 835.708 434.927 835.708 435.338C835.708 435.741 835.771 436.097 835.895 436.405C836.027 436.713 836.207 436.955 836.434 437.131C836.669 437.3 836.94 437.384 837.248 437.384ZM841.186 438V432.654H841.934L842.011 433.622H842.044C842.22 433.285 842.44 433.017 842.704 432.819C842.968 432.621 843.254 432.522 843.562 432.522C843.68 432.522 843.782 432.529 843.87 432.544C843.958 432.559 844.046 432.588 844.134 432.632L843.936 433.402C843.856 433.38 843.779 433.365 843.705 433.358C843.639 433.343 843.551 433.336 843.441 433.336C843.214 433.336 842.976 433.428 842.726 433.611C842.484 433.794 842.272 434.113 842.088 434.568V438H841.186ZM846.773 438.132C846.099 438.132 845.56 437.89 845.156 437.406C844.76 436.915 844.562 436.225 844.562 435.338C844.562 434.759 844.669 434.26 844.881 433.842C845.101 433.417 845.387 433.09 845.739 432.863C846.091 432.636 846.473 432.522 846.883 432.522C847.199 432.522 847.466 432.577 847.686 432.687C847.914 432.79 848.145 432.94 848.379 433.138L848.335 432.225V430.168H849.248V438H848.5L848.423 437.373H848.39C848.185 437.578 847.943 437.758 847.664 437.912C847.386 438.059 847.089 438.132 846.773 438.132ZM846.971 437.373C847.221 437.373 847.455 437.311 847.675 437.186C847.895 437.061 848.115 436.878 848.335 436.636V433.842C848.115 433.637 847.899 433.494 847.686 433.413C847.474 433.325 847.257 433.281 847.037 433.281C846.751 433.281 846.491 433.369 846.256 433.545C846.029 433.714 845.846 433.952 845.706 434.26C845.567 434.561 845.497 434.916 845.497 435.327C845.497 435.965 845.626 436.467 845.882 436.834C846.139 437.193 846.502 437.373 846.971 437.373ZM851.962 435.822C851.911 435.477 851.929 435.173 852.017 434.909C852.105 434.638 852.226 434.396 852.38 434.183C852.541 433.963 852.703 433.754 852.864 433.556C853.033 433.358 853.176 433.16 853.293 432.962C853.41 432.764 853.469 432.548 853.469 432.313C853.469 432.115 853.429 431.935 853.348 431.774C853.267 431.613 853.146 431.484 852.985 431.389C852.831 431.294 852.637 431.246 852.402 431.246C852.167 431.246 851.94 431.305 851.72 431.422C851.507 431.532 851.313 431.686 851.137 431.884L850.62 431.411C850.855 431.147 851.126 430.931 851.434 430.762C851.749 430.586 852.109 430.498 852.512 430.498C852.879 430.498 853.201 430.571 853.48 430.718C853.759 430.857 853.971 431.059 854.118 431.323C854.272 431.58 854.349 431.891 854.349 432.258C854.349 432.544 854.29 432.804 854.173 433.039C854.056 433.266 853.909 433.486 853.733 433.699C853.564 433.904 853.399 434.113 853.238 434.326C853.077 434.531 852.948 434.755 852.853 434.997C852.758 435.239 852.725 435.514 852.754 435.822H851.962ZM852.38 438.132C852.204 438.132 852.05 438.07 851.918 437.945C851.793 437.813 851.731 437.648 851.731 437.45C851.731 437.237 851.793 437.069 851.918 436.944C852.05 436.812 852.204 436.746 852.38 436.746C852.563 436.746 852.717 436.812 852.842 436.944C852.974 437.069 853.04 437.237 853.04 437.45C853.04 437.648 852.974 437.813 852.842 437.945C852.717 438.07 852.563 438.132 852.38 438.132Z" fill="#BC8A66"/>
<path d="M600.17 382V373.472H602.601C603.242 373.472 603.801 373.554 604.278 373.719C604.755 373.875 605.127 374.135 605.396 374.499C605.665 374.863 605.799 375.357 605.799 375.981C605.799 376.579 605.665 377.073 605.396 377.463C605.136 377.844 604.768 378.135 604.291 378.334C603.823 378.525 603.277 378.62 602.653 378.62H601.249V382H600.17ZM601.249 377.736H602.523C603.268 377.736 603.819 377.593 604.174 377.307C604.538 377.021 604.72 376.579 604.72 375.981C604.72 375.366 604.529 374.941 604.148 374.707C603.775 374.464 603.216 374.343 602.471 374.343H601.249V377.736ZM608.404 382.156C608.058 382.156 607.741 382.087 607.455 381.948C607.178 381.801 606.957 381.597 606.792 381.337C606.628 381.068 606.545 380.743 606.545 380.362C606.545 379.651 606.857 379.114 607.481 378.75C608.105 378.386 609.093 378.13 610.445 377.983C610.437 377.723 610.393 377.472 610.315 377.229C610.246 376.986 610.116 376.791 609.925 376.644C609.735 376.497 609.47 376.423 609.132 376.423C608.768 376.423 608.426 376.492 608.105 376.631C607.785 376.761 607.499 376.908 607.247 377.073L606.831 376.345C607.022 376.215 607.247 376.089 607.507 375.968C607.767 375.838 608.049 375.734 608.352 375.656C608.656 375.569 608.976 375.526 609.314 375.526C609.826 375.526 610.242 375.634 610.562 375.851C610.892 376.059 611.13 376.358 611.277 376.748C611.433 377.138 611.511 377.597 611.511 378.126V382H610.627L610.536 381.246H610.497C610.194 381.497 609.869 381.714 609.522 381.896C609.176 382.069 608.803 382.156 608.404 382.156ZM608.703 381.272C609.015 381.272 609.306 381.203 609.574 381.064C609.852 380.925 610.142 380.722 610.445 380.453V378.75C609.735 378.837 609.171 378.949 608.755 379.088C608.348 379.218 608.053 379.383 607.871 379.582C607.689 379.781 607.598 380.02 607.598 380.297C607.598 380.644 607.707 380.895 607.923 381.051C608.14 381.198 608.4 381.272 608.703 381.272ZM615.215 382.156C614.756 382.156 614.318 382.078 613.902 381.922C613.495 381.757 613.148 381.532 612.862 381.246L613.356 380.622C613.633 380.847 613.919 381.021 614.214 381.142C614.517 381.263 614.864 381.324 615.254 381.324C615.67 381.324 615.982 381.229 616.19 381.038C616.398 380.839 616.502 380.605 616.502 380.336C616.502 380.119 616.428 379.942 616.281 379.803C616.142 379.656 615.965 379.534 615.748 379.439C615.54 379.335 615.315 379.24 615.072 379.153C614.76 379.04 614.461 378.91 614.175 378.763C613.889 378.607 613.655 378.416 613.473 378.191C613.3 377.957 613.213 377.667 613.213 377.32C613.213 376.809 613.404 376.384 613.785 376.046C614.175 375.699 614.712 375.526 615.397 375.526C615.787 375.526 616.151 375.595 616.489 375.734C616.827 375.864 617.117 376.033 617.36 376.241L616.866 376.852C616.641 376.696 616.411 376.575 616.177 376.488C615.943 376.401 615.683 376.358 615.397 376.358C614.998 376.358 614.704 376.449 614.513 376.631C614.331 376.813 614.24 377.025 614.24 377.268C614.24 377.459 614.296 377.619 614.409 377.749C614.522 377.87 614.678 377.979 614.877 378.074C615.085 378.169 615.319 378.26 615.579 378.347C615.908 378.468 616.22 378.607 616.515 378.763C616.818 378.91 617.061 379.105 617.243 379.348C617.434 379.582 617.529 379.89 617.529 380.271C617.529 380.618 617.438 380.934 617.256 381.22C617.083 381.497 616.823 381.723 616.476 381.896C616.138 382.069 615.718 382.156 615.215 382.156ZM620.726 382.156C620.267 382.156 619.829 382.078 619.413 381.922C619.006 381.757 618.659 381.532 618.373 381.246L618.867 380.622C619.145 380.847 619.431 381.021 619.725 381.142C620.029 381.263 620.375 381.324 620.765 381.324C621.181 381.324 621.493 381.229 621.701 381.038C621.909 380.839 622.013 380.605 622.013 380.336C622.013 380.119 621.94 379.942 621.792 379.803C621.654 379.656 621.476 379.534 621.259 379.439C621.051 379.335 620.826 379.24 620.583 379.153C620.271 379.04 619.972 378.91 619.686 378.763C619.4 378.607 619.166 378.416 618.984 378.191C618.811 377.957 618.724 377.667 618.724 377.32C618.724 376.809 618.915 376.384 619.296 376.046C619.686 375.699 620.224 375.526 620.908 375.526C621.298 375.526 621.662 375.595 622 375.734C622.338 375.864 622.629 376.033 622.871 376.241L622.377 376.852C622.152 376.696 621.922 376.575 621.688 376.488C621.454 376.401 621.194 376.358 620.908 376.358C620.51 376.358 620.215 376.449 620.024 376.631C619.842 376.813 619.751 377.025 619.751 377.268C619.751 377.459 619.808 377.619 619.92 377.749C620.033 377.87 620.189 377.979 620.388 378.074C620.596 378.169 620.83 378.26 621.09 378.347C621.42 378.468 621.732 378.607 622.026 378.763C622.33 378.91 622.572 379.105 622.754 379.348C622.945 379.582 623.04 379.89 623.04 380.271C623.04 380.618 622.949 380.934 622.767 381.22C622.594 381.497 622.334 381.723 621.987 381.896C621.649 382.069 621.229 382.156 620.726 382.156ZM625.588 382L623.833 375.682H624.951L625.874 379.335C625.943 379.621 626.008 379.907 626.069 380.193C626.129 380.479 626.186 380.791 626.238 381.129H626.29C626.359 380.791 626.424 380.479 626.485 380.193C626.554 379.907 626.623 379.621 626.693 379.335L627.629 375.682H628.799L629.748 379.335C629.826 379.621 629.895 379.907 629.956 380.193C630.025 380.479 630.094 380.791 630.164 381.129H630.216C630.285 380.791 630.35 380.479 630.411 380.193C630.471 379.907 630.532 379.621 630.593 379.335L631.516 375.682H632.556L630.853 382H629.462L628.617 378.62C628.547 378.325 628.478 378.035 628.409 377.749C628.348 377.454 628.283 377.121 628.214 376.748H628.162C628.101 377.121 628.036 377.454 627.967 377.749C627.906 378.044 627.837 378.334 627.759 378.62L626.914 382H625.588ZM636.402 382.156C635.89 382.156 635.409 382.026 634.959 381.766C634.517 381.506 634.157 381.129 633.88 380.635C633.611 380.141 633.477 379.547 633.477 378.854C633.477 378.143 633.611 377.541 633.88 377.047C634.157 376.553 634.517 376.176 634.959 375.916C635.409 375.656 635.89 375.526 636.402 375.526C636.922 375.526 637.403 375.656 637.845 375.916C638.287 376.176 638.642 376.553 638.911 377.047C639.188 377.541 639.327 378.143 639.327 378.854C639.327 379.547 639.188 380.141 638.911 380.635C638.642 381.129 638.287 381.506 637.845 381.766C637.403 382.026 636.922 382.156 636.402 382.156ZM636.402 381.272C636.766 381.272 637.086 381.172 637.364 380.973C637.641 380.765 637.853 380.479 638.001 380.115C638.148 379.751 638.222 379.331 638.222 378.854C638.222 378.369 638.148 377.944 638.001 377.58C637.853 377.207 637.641 376.921 637.364 376.722C637.086 376.514 636.766 376.41 636.402 376.41C636.038 376.41 635.717 376.514 635.44 376.722C635.171 376.921 634.959 377.207 634.803 377.58C634.655 377.944 634.582 378.369 634.582 378.854C634.582 379.331 634.655 379.751 634.803 380.115C634.959 380.479 635.171 380.765 635.44 380.973C635.717 381.172 636.038 381.272 636.402 381.272ZM641.056 382V375.682H641.94L642.031 376.826H642.07C642.278 376.427 642.538 376.111 642.85 375.877C643.162 375.643 643.5 375.526 643.864 375.526C644.002 375.526 644.124 375.535 644.228 375.552C644.332 375.569 644.436 375.604 644.54 375.656L644.306 376.566C644.21 376.54 644.119 376.523 644.033 376.514C643.955 376.497 643.851 376.488 643.721 376.488C643.452 376.488 643.17 376.596 642.876 376.813C642.59 377.03 642.338 377.407 642.122 377.944V382H641.056ZM647.658 382.156C646.861 382.156 646.224 381.87 645.747 381.298C645.279 380.717 645.045 379.903 645.045 378.854C645.045 378.169 645.171 377.58 645.422 377.086C645.682 376.583 646.02 376.198 646.436 375.929C646.852 375.66 647.303 375.526 647.788 375.526C648.161 375.526 648.477 375.591 648.737 375.721C649.006 375.842 649.279 376.02 649.556 376.254L649.504 375.175V372.744H650.583V382H649.699L649.608 381.259H649.569C649.327 381.502 649.041 381.714 648.711 381.896C648.382 382.069 648.031 382.156 647.658 382.156ZM647.892 381.259C648.187 381.259 648.464 381.185 648.724 381.038C648.984 380.891 649.244 380.674 649.504 380.388V377.086C649.244 376.843 648.989 376.674 648.737 376.579C648.486 376.475 648.23 376.423 647.97 376.423C647.632 376.423 647.325 376.527 647.047 376.735C646.779 376.934 646.562 377.216 646.397 377.58C646.233 377.935 646.15 378.356 646.15 378.841C646.15 379.595 646.302 380.189 646.605 380.622C646.909 381.047 647.338 381.259 647.892 381.259Z" fill="#F1F1F1"/>
<defs>
<linearGradient id="paint0_linear_218_2" x1="137" y1="68" x2="137" y2="168" gradientUnits="userSpaceOnUse">
<stop/>
<stop offset="1" stop-color="#763200"/>
</linearGradient>
<linearGradient id="paint1_linear_218_2" x1="1326" y1="683" x2="1261" y2="580" gradientUnits="userSpaceOnUse">
<stop stop-color="#EF6704"/>
<stop offset="1" stop-color="#330000"/>
</linearGradient>
<linearGradient id="paint2_linear_218_2" x1="646" y1="704" x2="646" y2="774" gradientUnits="userSpaceOnUse">
<stop stop-color="#D05E0B"/>
<stop offset="1" stop-color="#D05E0B" stop-opacity="0"/>
</linearGradient>
<linearGradient id="paint3_linear_218_2" x1="600.5" y1="480" x2="887" y2="528" gradientUnits="userSpaceOnUse">
<stop stop-color="#703D19"/>
<stop offset="1" stop-color="#703D19" stop-opacity="0"/>
</linearGradient>
</defs>
</svg>
