<svg width="1280" height="665" viewBox="0 0 1280 665" fill="none" xmlns="http://www.w3.org/2000/svg">
<g clip-path="url(#clip0_900_28)">
<rect width="1280" height="665" fill="white"/>
<rect width="1280" height="665" fill="#EDEDED"/>
<rect x="340.5" y="138.5" width="600" height="389" rx="11.5" stroke="#B0B0B0"/>
<path d="M539.42 222H536.48V207.8H542.7C545.64 207.8 547.84 209.36 547.84 212.26V212.5C547.84 214.68 546.64 216.08 544.8 216.66L548.32 222H545.02L541.8 216.96H539.42V222ZM539.42 210.24V214.52H542.4C543.8 214.52 544.8 213.9 544.8 212.5V212.26C544.8 210.84 543.8 210.24 542.4 210.24H539.42ZM554.363 222.26C551.083 222.26 549.103 220.14 549.103 216.96V216.7C549.103 213.56 551.123 211.42 554.363 211.42C557.843 211.42 559.563 213.84 559.383 217.44H551.803C551.923 219.24 552.823 220.12 554.363 220.12C555.603 220.12 556.283 219.58 556.543 218.86H559.323C558.823 220.94 557.023 222.26 554.363 222.26ZM551.843 215.68H556.583C556.443 214.34 555.703 213.5 554.343 213.5C552.923 213.5 552.103 214.22 551.843 215.68ZM566.313 222.26C563.093 222.26 561.153 220.12 561.153 216.96V216.7C561.153 213.54 563.093 211.42 566.313 211.42C569.013 211.42 570.773 212.9 571.113 215.34H568.353C568.133 214.3 567.593 213.62 566.273 213.62C564.733 213.62 564.033 214.72 564.033 216.7V216.96C564.033 218.96 564.733 220.06 566.273 220.06C567.593 220.06 568.153 219.36 568.373 218.32H571.113C570.793 220.78 569.013 222.26 566.313 222.26ZM577.996 222.26C574.796 222.26 572.696 220.1 572.696 216.96V216.7C572.696 213.58 574.796 211.42 577.996 211.42C581.196 211.42 583.296 213.58 583.296 216.72V216.96C583.296 220.1 581.196 222.26 577.996 222.26ZM577.996 220.08C579.636 220.08 580.456 218.98 580.456 216.96V216.72C580.456 214.7 579.636 213.6 577.996 213.6C576.356 213.6 575.536 214.7 575.536 216.7V216.96C575.536 218.98 576.356 220.08 577.996 220.08ZM591.045 222H587.965L584.185 211.68H587.165L589.565 219.2L591.965 211.68H594.805L591.045 222ZM600.945 222.26C597.665 222.26 595.685 220.14 595.685 216.96V216.7C595.685 213.56 597.705 211.42 600.945 211.42C604.425 211.42 606.145 213.84 605.965 217.44H598.385C598.505 219.24 599.405 220.12 600.945 220.12C602.185 220.12 602.865 219.58 603.125 218.86H605.905C605.405 220.94 603.605 222.26 600.945 222.26ZM598.425 215.68H603.165C603.025 214.34 602.285 213.5 600.925 213.5C599.505 213.5 598.685 214.22 598.425 215.68ZM611.035 222H608.235V211.68H610.915L610.995 213.7C611.495 212.44 612.515 211.5 614.035 211.5C614.235 211.5 614.475 211.52 614.655 211.56V214.24C614.455 214.22 614.135 214.2 613.875 214.2C612.015 214.2 611.035 215.2 611.035 217.02V222ZM624.763 225.4H621.883L623.223 221.9L619.283 211.68H622.263L624.703 218.88L627.063 211.68H629.923L624.763 225.4ZM636.121 222.26C632.921 222.26 630.821 220.1 630.821 216.96V216.7C630.821 213.58 632.921 211.42 636.121 211.42C639.321 211.42 641.421 213.58 641.421 216.72V216.96C641.421 220.1 639.321 222.26 636.121 222.26ZM636.121 220.08C637.761 220.08 638.581 218.98 638.581 216.96V216.72C638.581 214.7 637.761 213.6 636.121 213.6C634.481 213.6 633.661 214.7 633.661 216.7V216.96C633.661 218.98 634.481 220.08 636.121 220.08ZM647.165 222.26C644.725 222.26 643.585 220.72 643.585 218.28V211.68H646.405V217.74C646.405 219.2 646.945 219.98 648.185 219.98C649.465 219.98 650.265 219.04 650.265 217.32V211.68H653.085V222H650.365L650.305 220.5C649.725 221.42 648.645 222.26 647.165 222.26ZM658.653 222H655.853V211.68H658.533L658.613 213.7C659.113 212.44 660.133 211.5 661.653 211.5C661.853 211.5 662.093 211.52 662.273 211.56V214.24C662.073 214.22 661.753 214.2 661.493 214.2C659.633 214.2 658.653 215.2 658.653 217.02V222ZM670.94 222.26C668.86 222.26 667.46 220.94 667.46 219.12C667.46 217.36 668.58 216.32 670.46 216.06L674.26 215.52V214.92C674.26 214.06 673.7 213.54 672.48 213.54C671.34 213.54 670.7 213.92 670.52 214.68H667.88C668.12 212.62 669.86 211.42 672.54 211.42C675.32 211.42 676.96 212.8 676.96 214.96V222H674.38L674.28 220.4C673.64 221.54 672.46 222.26 670.94 222.26ZM671.78 220.16C673.14 220.16 674.26 219.36 674.26 218.22V217.4L671.46 217.78C670.6 217.9 670.16 218.26 670.16 218.98C670.16 219.72 670.76 220.16 671.78 220.16ZM684.282 222.26C681.062 222.26 679.122 220.12 679.122 216.96V216.7C679.122 213.54 681.062 211.42 684.282 211.42C686.982 211.42 688.742 212.9 689.082 215.34H686.322C686.102 214.3 685.562 213.62 684.242 213.62C682.702 213.62 682.002 214.72 682.002 216.7V216.96C682.002 218.96 682.702 220.06 684.242 220.06C685.562 220.06 686.122 219.36 686.342 218.32H689.082C688.762 220.78 686.982 222.26 684.282 222.26ZM695.825 222.26C692.605 222.26 690.665 220.12 690.665 216.96V216.7C690.665 213.54 692.605 211.42 695.825 211.42C698.525 211.42 700.285 212.9 700.625 215.34H697.865C697.645 214.3 697.105 213.62 695.785 213.62C694.245 213.62 693.545 214.72 693.545 216.7V216.96C693.545 218.96 694.245 220.06 695.785 220.06C697.105 220.06 697.665 219.36 697.885 218.32H700.625C700.305 220.78 698.525 222.26 695.825 222.26ZM707.508 222.26C704.308 222.26 702.208 220.1 702.208 216.96V216.7C702.208 213.58 704.308 211.42 707.508 211.42C710.708 211.42 712.808 213.58 712.808 216.72V216.96C712.808 220.1 710.708 222.26 707.508 222.26ZM707.508 220.08C709.148 220.08 709.968 218.98 709.968 216.96V216.72C709.968 214.7 709.148 213.6 707.508 213.6C705.868 213.6 705.048 214.7 705.048 216.7V216.96C705.048 218.98 705.868 220.08 707.508 220.08ZM718.551 222.26C716.111 222.26 714.971 220.72 714.971 218.28V211.68H717.791V217.74C717.791 219.2 718.331 219.98 719.571 219.98C720.851 219.98 721.651 219.04 721.651 217.32V211.68H724.471V222H721.751L721.691 220.5C721.111 221.42 720.031 222.26 718.551 222.26ZM730.039 222H727.239V211.68H729.939L730.019 213.28C730.519 212.32 731.559 211.42 733.279 211.42C735.839 211.42 736.859 213.04 736.859 215.36V222H734.079V216.06C734.079 214.56 733.559 213.68 732.219 213.68C730.919 213.68 730.039 214.64 730.039 216.28V222ZM743.829 222.26C741.349 222.26 740.169 221.14 740.169 219.02V213.72H738.249V211.68H740.169V208.4H742.969V211.68H745.649V213.72H742.969V218.78C742.969 219.68 743.349 220.06 744.449 220.06C744.949 220.06 745.409 219.94 745.689 219.86V222.02C745.189 222.14 744.429 222.26 743.829 222.26Z" fill="#373737"/>
<line x1="464.5" y1="325.75" x2="817.5" y2="325.75" stroke="black" stroke-width="0.5"/>
<path d="M475.571 315H467.496V302.93H475.503V304.256H469.026V308.166H474.976V309.492H469.026V313.674H475.571V315ZM479.413 315H477.968V306.262H479.379L479.396 307.656C479.872 306.789 480.773 306.058 482.133 306.058C483.459 306.058 484.343 306.687 484.768 307.792C485.38 306.687 486.349 306.058 487.658 306.058C489.613 306.058 490.565 307.299 490.565 309.339V315H489.12V309.628C489.12 308.081 488.525 307.299 487.233 307.299C485.822 307.299 484.989 308.37 484.989 310.07V315H483.544V309.628C483.544 308.115 482.983 307.299 481.708 307.299C480.28 307.299 479.413 308.353 479.413 310.121V315ZM495.488 315.204C493.686 315.204 492.581 314.167 492.581 312.705C492.581 311.43 493.346 310.478 494.757 310.274L498.395 309.73V308.999C498.395 307.775 497.528 307.231 496.423 307.231C495.25 307.231 494.451 307.809 494.315 308.727H492.904C493.091 307.078 494.383 306.058 496.44 306.058C498.582 306.058 499.806 307.282 499.806 309.067V315H498.446L498.412 313.64C497.834 314.643 496.729 315.204 495.488 315.204ZM495.692 314.014C497.12 314.014 498.395 313.062 498.395 311.77V310.886L495.233 311.362C494.4 311.464 494.026 311.94 494.026 312.654C494.026 313.47 494.587 314.014 495.692 314.014ZM503.868 304.511H502.338V302.216H503.868V304.511ZM503.817 315H502.372V306.262H503.817V315ZM507.934 315H506.489V302.216H507.934V315Z" fill="#585858"/>
<rect x="544" y="394" width="193" height="34" rx="5" fill="url(#paint0_linear_900_28)"/>
<path d="M581.536 416H579.184V404.64H584.16C586.512 404.64 588.272 405.888 588.272 408.208V408.4C588.272 410.144 587.312 411.264 585.84 411.728L588.656 416H586.016L583.44 411.968H581.536V416ZM581.536 406.592V410.016H583.92C585.04 410.016 585.84 409.52 585.84 408.4V408.208C585.84 407.072 585.04 406.592 583.92 406.592H581.536ZM593.49 416.208C590.866 416.208 589.282 414.512 589.282 411.968V411.76C589.282 409.248 590.898 407.536 593.49 407.536C596.274 407.536 597.65 409.472 597.506 412.352H591.442C591.538 413.792 592.258 414.496 593.49 414.496C594.482 414.496 595.026 414.064 595.234 413.488H597.458C597.058 415.152 595.618 416.208 593.49 416.208ZM591.474 410.944H595.266C595.154 409.872 594.562 409.2 593.474 409.2C592.338 409.2 591.682 409.776 591.474 410.944ZM602.384 416.208C600.064 416.208 598.736 415.168 598.592 413.392H600.72C600.848 414.192 601.472 414.608 602.384 414.608C603.232 414.608 603.808 414.288 603.808 413.696C603.808 413.184 603.424 412.88 601.952 412.624C599.824 412.272 598.848 411.6 598.848 410.112C598.848 408.56 600.272 407.536 602.288 407.536C604.416 407.536 605.696 408.512 605.856 410.192H603.744C603.648 409.488 603.088 409.104 602.272 409.104C601.488 409.104 600.992 409.424 600.992 409.968C600.992 410.48 601.408 410.752 602.832 410.976C605.056 411.328 606 412.048 606 413.488C606 415.12 604.592 416.208 602.384 416.208ZM611.412 416.208C608.788 416.208 607.204 414.512 607.204 411.968V411.76C607.204 409.248 608.82 407.536 611.412 407.536C614.196 407.536 615.572 409.472 615.428 412.352H609.364C609.46 413.792 610.18 414.496 611.412 414.496C612.404 414.496 612.948 414.064 613.156 413.488H615.38C614.98 415.152 613.54 416.208 611.412 416.208ZM609.396 410.944H613.188C613.076 409.872 612.484 409.2 611.396 409.2C610.26 409.2 609.604 409.776 609.396 410.944ZM620.595 416.208C618.611 416.208 617.667 415.312 617.667 413.616V409.376H616.131V407.744H617.667V405.12H619.907V407.744H622.051V409.376H619.907V413.424C619.907 414.144 620.211 414.448 621.091 414.448C621.491 414.448 621.859 414.352 622.083 414.288V416.016C621.683 416.112 621.075 416.208 620.595 416.208ZM629.173 418.72H626.917V407.744H629.013L629.077 409.008C629.461 408.272 630.389 407.536 631.733 407.536C633.941 407.536 635.269 409.328 635.269 411.76V411.968C635.269 414.416 633.892 416.208 631.685 416.208C630.516 416.208 629.621 415.6 629.173 414.832V418.72ZM631.045 414.48C632.325 414.48 632.997 413.584 632.997 411.968V411.76C632.997 410.144 632.325 409.248 631.045 409.248C629.765 409.248 629.093 410.144 629.093 411.76V411.968C629.093 413.584 629.765 414.48 631.045 414.48ZM639.377 416.208C637.713 416.208 636.593 415.152 636.593 413.696C636.593 412.288 637.489 411.456 638.993 411.248L642.033 410.816V410.336C642.033 409.648 641.585 409.232 640.609 409.232C639.697 409.232 639.185 409.536 639.041 410.144H636.929C637.121 408.496 638.513 407.536 640.657 407.536C642.881 407.536 644.193 408.64 644.193 410.368V416H642.129L642.049 414.72C641.537 415.632 640.593 416.208 639.377 416.208ZM640.049 414.528C641.137 414.528 642.033 413.888 642.033 412.976V412.32L639.793 412.624C639.105 412.72 638.753 413.008 638.753 413.584C638.753 414.176 639.233 414.528 640.049 414.528ZM649.619 416.208C647.299 416.208 645.971 415.168 645.827 413.392H647.955C648.083 414.192 648.707 414.608 649.619 414.608C650.467 414.608 651.043 414.288 651.043 413.696C651.043 413.184 650.659 412.88 649.187 412.624C647.059 412.272 646.083 411.6 646.083 410.112C646.083 408.56 647.507 407.536 649.523 407.536C651.651 407.536 652.931 408.512 653.091 410.192H650.979C650.883 409.488 650.323 409.104 649.507 409.104C648.723 409.104 648.227 409.424 648.227 409.968C648.227 410.48 648.643 410.752 650.067 410.976C652.291 411.328 653.235 412.048 653.235 413.488C653.235 415.12 651.827 416.208 649.619 416.208ZM657.931 416.208C655.611 416.208 654.283 415.168 654.139 413.392H656.267C656.395 414.192 657.019 414.608 657.931 414.608C658.779 414.608 659.355 414.288 659.355 413.696C659.355 413.184 658.971 412.88 657.499 412.624C655.371 412.272 654.395 411.6 654.395 410.112C654.395 408.56 655.819 407.536 657.835 407.536C659.963 407.536 661.243 408.512 661.403 410.192H659.291C659.195 409.488 658.635 409.104 657.819 409.104C657.035 409.104 656.539 409.424 656.539 409.968C656.539 410.48 656.955 410.752 658.379 410.976C660.603 411.328 661.547 412.048 661.547 413.488C661.547 415.12 660.139 416.208 657.931 416.208ZM666.882 416H664.546L662.098 407.744H664.354L665.858 413.664L667.362 407.744H669.538L671.058 413.696L672.594 407.744H674.802L672.338 416H670.002L668.434 410.16L666.882 416ZM679.757 416.208C677.197 416.208 675.517 414.48 675.517 411.968V411.76C675.517 409.264 677.197 407.536 679.757 407.536C682.317 407.536 683.997 409.264 683.997 411.776V411.968C683.997 414.48 682.317 416.208 679.757 416.208ZM679.757 414.464C681.069 414.464 681.725 413.584 681.725 411.968V411.776C681.725 410.16 681.069 409.28 679.757 409.28C678.445 409.28 677.789 410.16 677.789 411.76V411.968C677.789 413.584 678.445 414.464 679.757 414.464ZM688.047 416H685.807V407.744H687.951L688.015 409.36C688.415 408.352 689.231 407.6 690.447 407.6C690.607 407.6 690.799 407.616 690.943 407.648V409.792C690.783 409.776 690.527 409.76 690.319 409.76C688.831 409.76 688.047 410.56 688.047 412.016V416ZM695.382 416.208C693.158 416.208 691.782 414.432 691.782 411.968V411.76C691.782 409.328 693.11 407.536 695.302 407.536C696.534 407.536 697.398 408.112 697.878 408.848V403.968H700.134V416H698.054L697.974 414.704C697.606 415.44 696.726 416.208 695.382 416.208ZM696.006 414.48C697.286 414.48 697.958 413.584 697.958 411.968V411.76C697.958 410.144 697.286 409.248 696.006 409.248C694.742 409.248 694.054 410.144 694.054 411.76V411.968C694.054 413.584 694.742 414.48 696.006 414.48Z" fill="#FEFEFE"/>
<path d="M612.09 505.162C609.471 505.162 607.716 503.245 607.716 500.383V500.018C607.716 497.197 609.457 495.253 612.076 495.253C614.209 495.253 615.654 496.508 615.978 498.304H614.736C614.371 497.089 613.44 496.333 612.063 496.333C610.132 496.333 608.971 497.845 608.971 500.018V500.383C608.971 502.556 610.159 504.082 612.09 504.082C613.642 504.082 614.533 503.11 614.79 501.962H616.045C615.708 503.717 614.344 505.162 612.09 505.162ZM620.475 505.162C618.45 505.162 617.154 503.771 617.154 501.652V501.409C617.154 499.289 618.45 497.899 620.475 497.899C622.5 497.899 623.782 499.289 623.782 501.409V501.652C623.782 503.771 622.5 505.162 620.475 505.162ZM620.475 504.19C621.852 504.19 622.608 503.258 622.608 501.652V501.409C622.608 499.802 621.852 498.871 620.475 498.871C619.084 498.871 618.328 499.802 618.328 501.409V501.652C618.328 503.258 619.084 504.19 620.475 504.19ZM626.642 505H625.495V498.061H626.615L626.642 499.195C627.047 498.452 627.776 497.899 628.883 497.899C630.544 497.899 631.286 498.925 631.286 500.518V505H630.152V500.801C630.152 499.559 629.68 498.898 628.559 498.898C627.412 498.898 626.642 499.721 626.642 501.085V505ZM635.854 505.162C634.463 505.162 633.734 504.527 633.734 503.245V498.979H632.344V498.061H633.734V495.928H634.882V498.061H636.853V498.979H634.882V503.083C634.882 503.839 635.125 504.203 636.029 504.203C636.299 504.203 636.664 504.136 636.893 504.068V505.027C636.61 505.095 636.178 505.162 635.854 505.162ZM640.305 505.162C638.874 505.162 637.996 504.338 637.996 503.177C637.996 502.165 638.604 501.409 639.724 501.247L642.613 500.815V500.234C642.613 499.262 641.925 498.83 641.047 498.83C640.116 498.83 639.481 499.289 639.373 500.018H638.253C638.401 498.709 639.427 497.899 641.061 497.899C642.762 497.899 643.734 498.871 643.734 500.288V505H642.654L642.627 503.92C642.168 504.716 641.29 505.162 640.305 505.162ZM640.467 504.217C641.601 504.217 642.613 503.461 642.613 502.435V501.733L640.102 502.111C639.441 502.192 639.144 502.57 639.144 503.137C639.144 503.785 639.589 504.217 640.467 504.217ZM648.62 505.162C646.554 505.162 645.38 503.717 645.38 501.652V501.409C645.38 499.33 646.554 497.899 648.633 497.899C650.321 497.899 651.387 498.844 651.603 500.275H650.456C650.253 499.397 649.686 498.871 648.606 498.871C647.283 498.871 646.568 499.802 646.568 501.409V501.652C646.568 503.272 647.283 504.19 648.62 504.19C649.686 504.19 650.294 503.623 650.496 502.759H651.644C651.36 504.23 650.294 505.162 648.62 505.162ZM655.879 505.162C654.489 505.162 653.76 504.527 653.76 503.245V498.979H652.369V498.061H653.76V495.928H654.907V498.061H656.878V498.979H654.907V503.083C654.907 503.839 655.15 504.203 656.055 504.203C656.325 504.203 656.689 504.136 656.919 504.068V505.027C656.635 505.095 656.203 505.162 655.879 505.162ZM663.729 505.162C662.136 505.162 661.353 504.163 661.353 502.529V498.061H662.514V502.313C662.514 503.474 662.946 504.176 664.08 504.176C665.241 504.176 665.902 503.272 665.902 501.949V498.061H667.05V505H665.929L665.916 503.906C665.497 504.635 664.755 505.162 663.729 505.162ZM671.602 505.162C669.928 505.162 668.835 504.365 668.686 502.88H669.793C669.955 503.825 670.59 504.244 671.616 504.244C672.574 504.244 673.209 503.866 673.209 503.123C673.209 502.489 672.75 502.178 671.373 501.935C669.766 501.652 668.943 501.152 668.943 499.91C668.943 498.709 669.996 497.899 671.494 497.899C673.06 497.899 674.073 498.668 674.208 500.032H673.087C672.966 499.235 672.372 498.817 671.494 498.817C670.63 498.817 670.063 499.208 670.063 499.856C670.063 500.491 670.468 500.774 671.818 501.004C673.452 501.274 674.356 501.8 674.356 503.016C674.356 504.325 673.236 505.162 671.602 505.162Z" fill="#535353"/>
<path d="M596.403 624H595.188V614.415H599.076C600.953 614.415 602.195 615.373 602.195 617.155V617.398C602.195 618.964 601.25 619.882 599.765 620.098L602.262 624H600.831L598.401 620.152H596.403V624ZM596.403 615.468V619.099H599.022C600.197 619.099 600.953 618.559 600.953 617.398V617.155C600.953 616.008 600.197 615.468 599.022 615.468H596.403ZM606.538 624.162C604.446 624.162 603.231 622.717 603.231 620.652V620.409C603.231 618.33 604.459 616.899 606.525 616.899C608.712 616.899 609.765 618.424 609.67 620.76H604.365C604.405 622.326 605.202 623.203 606.538 623.203C607.591 623.203 608.239 622.717 608.482 621.907H609.63C609.279 623.311 608.172 624.162 606.538 624.162ZM604.405 619.869H608.482C608.388 618.613 607.726 617.857 606.525 617.857C605.283 617.857 604.554 618.559 604.405 619.869ZM613.823 624.162C612.432 624.162 611.703 623.527 611.703 622.245V617.979H610.313V617.061H611.703V614.928H612.851V617.061H614.822V617.979H612.851V622.083C612.851 622.839 613.094 623.203 613.998 623.203C614.268 623.203 614.633 623.136 614.862 623.068V624.027C614.579 624.095 614.147 624.162 613.823 624.162ZM618.758 624.162C617.165 624.162 616.382 623.163 616.382 621.529V617.061H617.543V621.313C617.543 622.474 617.975 623.176 619.109 623.176C620.27 623.176 620.932 622.272 620.932 620.949V617.061H622.079V624H620.959L620.945 622.906C620.527 623.635 619.784 624.162 618.758 624.162ZM625.336 624H624.189V617.061H625.309L625.323 618.411C625.728 617.452 626.497 616.912 627.469 616.912C627.564 616.912 627.699 616.912 627.834 616.939V618.073C627.685 618.06 627.577 618.06 627.429 618.06C626.173 618.06 625.336 618.829 625.336 620.314V624ZM630.425 624H629.278V617.061H630.398L630.425 618.195C630.83 617.452 631.559 616.899 632.666 616.899C634.327 616.899 635.069 617.925 635.069 619.518V624H633.935V619.801C633.935 618.559 633.463 617.898 632.342 617.898C631.195 617.898 630.425 618.721 630.425 620.085V624ZM642.682 624.162C641.291 624.162 640.562 623.527 640.562 622.245V617.979H639.172V617.061H640.562V614.928H641.71V617.061H643.681V617.979H641.71V622.083C641.71 622.839 641.953 623.203 642.857 623.203C643.127 623.203 643.492 623.136 643.721 623.068V624.027C643.438 624.095 643.006 624.162 642.682 624.162ZM648.093 624.162C646.068 624.162 644.772 622.771 644.772 620.652V620.409C644.772 618.289 646.068 616.899 648.093 616.899C650.118 616.899 651.401 618.289 651.401 620.409V620.652C651.401 622.771 650.118 624.162 648.093 624.162ZM648.093 623.19C649.47 623.19 650.226 622.258 650.226 620.652V620.409C650.226 618.802 649.47 617.871 648.093 617.871C646.703 617.871 645.947 618.802 645.947 620.409V620.652C645.947 622.258 646.703 623.19 648.093 623.19ZM657.175 624H656.027V613.848H657.175V624ZM662.226 624.162C660.201 624.162 658.905 622.771 658.905 620.652V620.409C658.905 618.289 660.201 616.899 662.226 616.899C664.251 616.899 665.534 618.289 665.534 620.409V620.652C665.534 622.771 664.251 624.162 662.226 624.162ZM662.226 623.19C663.603 623.19 664.359 622.258 664.359 620.652V620.409C664.359 618.802 663.603 617.871 662.226 617.871C660.836 617.871 660.08 618.802 660.08 620.409V620.652C660.08 622.258 660.836 623.19 662.226 623.19ZM670.081 626.457C668.299 626.457 667.219 625.647 667.084 624.473H668.313C668.421 625.175 669.015 625.553 670.122 625.553C671.31 625.553 672.16 624.986 672.16 623.73V622.609C671.796 623.298 670.999 623.878 669.838 623.878C668.016 623.878 666.855 622.461 666.855 620.571V620.22C666.855 618.249 668.029 616.899 669.825 616.899C671.04 616.899 671.877 617.574 672.214 618.289L672.255 617.061H673.308V623.635C673.308 625.323 672.16 626.457 670.081 626.457ZM670.054 622.92C671.445 622.92 672.214 621.975 672.214 620.571V620.22C672.214 618.748 671.458 617.871 670.054 617.871C668.758 617.871 668.029 618.762 668.029 620.22V620.571C668.029 621.975 668.772 622.92 670.054 622.92ZM676.621 615.67H675.406V613.848H676.621V615.67ZM676.581 624H675.433V617.061H676.581V624ZM679.85 624H678.703V617.061H679.823L679.85 618.195C680.255 617.452 680.984 616.899 682.091 616.899C683.752 616.899 684.494 617.925 684.494 619.518V624H683.36V619.801C683.36 618.559 682.888 617.898 681.767 617.898C680.62 617.898 679.85 618.721 679.85 620.085V624Z" fill="#535353"/>
<path d="M1224.57 43.2757C1224.57 39.3867 1227.8 36.234 1231.78 36.234C1235.76 36.234 1238.99 39.3867 1238.99 43.2757C1238.99 47.1647 1235.76 50.3173 1231.78 50.3173C1227.8 50.3173 1224.57 47.1647 1224.57 43.2757Z" fill="url(#paint1_linear_900_28)"/>
<path d="M1231.78 25.8378L1234.73 34.5166H1228.83L1231.78 25.8378Z" fill="url(#paint2_linear_900_28)"/>
<path d="M1218.15 30.704L1226.52 34.8019L1222.34 38.8798L1218.15 30.704Z" fill="url(#paint3_linear_900_28)"/>
<path d="M1244.9 30.6466L1240.7 38.8224L1236.53 34.7446L1244.9 30.6466Z" fill="url(#paint4_linear_900_28)"/>
<path d="M1213.18 43.2758L1222.07 40.3923V46.1592L1213.18 43.2758Z" fill="url(#paint5_linear_900_28)"/>
<path d="M1218.14 55.9936L1222.34 47.8179L1226.51 51.8956L1218.14 55.9936Z" fill="url(#paint6_linear_900_28)"/>
<path d="M1244.97 56.1019L1236.6 52.0039L1240.78 47.9261L1244.97 56.1019Z" fill="url(#paint7_linear_900_28)"/>
<path d="M1249.67 43.5L1240.79 46.3834V40.6166L1249.67 43.5Z" fill="url(#paint8_linear_900_28)"/>
<path d="M1231.5 61.0179L1228.55 52.339H1234.45L1231.5 61.0179Z" fill="url(#paint9_linear_900_28)"/>
<line x1="340" y1="621.5" x2="570" y2="621.5" stroke="#B0B0B0"/>
<line x1="711" y1="621.5" x2="941" y2="621.5" stroke="#B0B0B0"/>
</g>
<defs>
<linearGradient id="paint0_linear_900_28" x1="544" y1="428" x2="738.168" y2="403.115" gradientUnits="userSpaceOnUse">
<stop stop-color="#6A70FF"/>
<stop offset="1" stop-color="#3278FF"/>
</linearGradient>
<linearGradient id="paint1_linear_900_28" x1="1224.57" y1="43.2757" x2="1238.99" y2="43.2757" gradientUnits="userSpaceOnUse">
<stop stop-color="#515BB0"/>
<stop offset="1" stop-color="#9BC7FF"/>
</linearGradient>
<linearGradient id="paint2_linear_900_28" x1="1234.73" y1="30.1772" x2="1228.83" y2="30.1772" gradientUnits="userSpaceOnUse">
<stop stop-color="#515BB0"/>
<stop offset="1" stop-color="#9BC7FF"/>
</linearGradient>
<linearGradient id="paint3_linear_900_28" x1="1223.38" y1="31.7335" x2="1219.3" y2="35.9081" gradientUnits="userSpaceOnUse">
<stop stop-color="#515BB0"/>
<stop offset="1" stop-color="#9BC7FF"/>
</linearGradient>
<linearGradient id="paint4_linear_900_28" x1="1243.84" y1="35.754" x2="1239.77" y2="31.5794" gradientUnits="userSpaceOnUse">
<stop stop-color="#515BB0"/>
<stop offset="1" stop-color="#9BC7FF"/>
</linearGradient>
<linearGradient id="paint5_linear_900_28" x1="1217.62" y1="40.3923" x2="1217.62" y2="46.1591" gradientUnits="userSpaceOnUse">
<stop stop-color="#515BB0"/>
<stop offset="1" stop-color="#9BC7FF"/>
</linearGradient>
<linearGradient id="paint6_linear_900_28" x1="1219.19" y1="50.8863" x2="1223.27" y2="55.0609" gradientUnits="userSpaceOnUse">
<stop stop-color="#515BB0"/>
<stop offset="1" stop-color="#9BC7FF"/>
</linearGradient>
<linearGradient id="paint7_linear_900_28" x1="1239.74" y1="55.0725" x2="1243.82" y2="50.8979" gradientUnits="userSpaceOnUse">
<stop stop-color="#515BB0"/>
<stop offset="1" stop-color="#9BC7FF"/>
</linearGradient>
<linearGradient id="paint8_linear_900_28" x1="1245.23" y1="46.3834" x2="1245.23" y2="40.6166" gradientUnits="userSpaceOnUse">
<stop stop-color="#515BB0"/>
<stop offset="1" stop-color="#9BC7FF"/>
</linearGradient>
<linearGradient id="paint9_linear_900_28" x1="1228.55" y1="56.6784" x2="1234.45" y2="56.6784" gradientUnits="userSpaceOnUse">
<stop stop-color="#515BB0"/>
<stop offset="1" stop-color="#9BC7FF"/>
</linearGradient>
<clipPath id="clip0_900_28">
<rect width="1280" height="665" fill="white"/>
</clipPath>
</defs>
</svg>
