<svg width="1280" height="665" viewBox="0 0 1280 665" fill="none" xmlns="http://www.w3.org/2000/svg">
<g clip-path="url(#clip0_889_4)">
<rect width="1280" height="665" fill="white"/>
<rect width="1280" height="665" fill="#1C1D21"/>
<rect x="340.5" y="138.5" width="600" height="389" rx="11.5" stroke="#4D4D4D"/>
<path d="M539.42 222H536.48V207.8H542.7C545.64 207.8 547.84 209.36 547.84 212.26V212.5C547.84 214.68 546.64 216.08 544.8 216.66L548.32 222H545.02L541.8 216.96H539.42V222ZM539.42 210.24V214.52H542.4C543.8 214.52 544.8 213.9 544.8 212.5V212.26C544.8 210.84 543.8 210.24 542.4 210.24H539.42ZM554.363 222.26C551.083 222.26 549.103 220.14 549.103 216.96V216.7C549.103 213.56 551.123 211.42 554.363 211.42C557.843 211.42 559.563 213.84 559.383 217.44H551.803C551.923 219.24 552.823 220.12 554.363 220.12C555.603 220.12 556.283 219.58 556.543 218.86H559.323C558.823 220.94 557.023 222.26 554.363 222.26ZM551.843 215.68H556.583C556.443 214.34 555.703 213.5 554.343 213.5C552.923 213.5 552.103 214.22 551.843 215.68ZM566.313 222.26C563.093 222.26 561.153 220.12 561.153 216.96V216.7C561.153 213.54 563.093 211.42 566.313 211.42C569.013 211.42 570.773 212.9 571.113 215.34H568.353C568.133 214.3 567.593 213.62 566.273 213.62C564.733 213.62 564.033 214.72 564.033 216.7V216.96C564.033 218.96 564.733 220.06 566.273 220.06C567.593 220.06 568.153 219.36 568.373 218.32H571.113C570.793 220.78 569.013 222.26 566.313 222.26ZM577.996 222.26C574.796 222.26 572.696 220.1 572.696 216.96V216.7C572.696 213.58 574.796 211.42 577.996 211.42C581.196 211.42 583.296 213.58 583.296 216.72V216.96C583.296 220.1 581.196 222.26 577.996 222.26ZM577.996 220.08C579.636 220.08 580.456 218.98 580.456 216.96V216.72C580.456 214.7 579.636 213.6 577.996 213.6C576.356 213.6 575.536 214.7 575.536 216.7V216.96C575.536 218.98 576.356 220.08 577.996 220.08ZM591.045 222H587.965L584.185 211.68H587.165L589.565 219.2L591.965 211.68H594.805L591.045 222ZM600.945 222.26C597.665 222.26 595.685 220.14 595.685 216.96V216.7C595.685 213.56 597.705 211.42 600.945 211.42C604.425 211.42 606.145 213.84 605.965 217.44H598.385C598.505 219.24 599.405 220.12 600.945 220.12C602.185 220.12 602.865 219.58 603.125 218.86H605.905C605.405 220.94 603.605 222.26 600.945 222.26ZM598.425 215.68H603.165C603.025 214.34 602.285 213.5 600.925 213.5C599.505 213.5 598.685 214.22 598.425 215.68ZM611.035 222H608.235V211.68H610.915L610.995 213.7C611.495 212.44 612.515 211.5 614.035 211.5C614.235 211.5 614.475 211.52 614.655 211.56V214.24C614.455 214.22 614.135 214.2 613.875 214.2C612.015 214.2 611.035 215.2 611.035 217.02V222ZM624.763 225.4H621.883L623.223 221.9L619.283 211.68H622.263L624.703 218.88L627.063 211.68H629.923L624.763 225.4ZM636.121 222.26C632.921 222.26 630.821 220.1 630.821 216.96V216.7C630.821 213.58 632.921 211.42 636.121 211.42C639.321 211.42 641.421 213.58 641.421 216.72V216.96C641.421 220.1 639.321 222.26 636.121 222.26ZM636.121 220.08C637.761 220.08 638.581 218.98 638.581 216.96V216.72C638.581 214.7 637.761 213.6 636.121 213.6C634.481 213.6 633.661 214.7 633.661 216.7V216.96C633.661 218.98 634.481 220.08 636.121 220.08ZM647.165 222.26C644.725 222.26 643.585 220.72 643.585 218.28V211.68H646.405V217.74C646.405 219.2 646.945 219.98 648.185 219.98C649.465 219.98 650.265 219.04 650.265 217.32V211.68H653.085V222H650.365L650.305 220.5C649.725 221.42 648.645 222.26 647.165 222.26ZM658.653 222H655.853V211.68H658.533L658.613 213.7C659.113 212.44 660.133 211.5 661.653 211.5C661.853 211.5 662.093 211.52 662.273 211.56V214.24C662.073 214.22 661.753 214.2 661.493 214.2C659.633 214.2 658.653 215.2 658.653 217.02V222ZM670.94 222.26C668.86 222.26 667.46 220.94 667.46 219.12C667.46 217.36 668.58 216.32 670.46 216.06L674.26 215.52V214.92C674.26 214.06 673.7 213.54 672.48 213.54C671.34 213.54 670.7 213.92 670.52 214.68H667.88C668.12 212.62 669.86 211.42 672.54 211.42C675.32 211.42 676.96 212.8 676.96 214.96V222H674.38L674.28 220.4C673.64 221.54 672.46 222.26 670.94 222.26ZM671.78 220.16C673.14 220.16 674.26 219.36 674.26 218.22V217.4L671.46 217.78C670.6 217.9 670.16 218.26 670.16 218.98C670.16 219.72 670.76 220.16 671.78 220.16ZM684.282 222.26C681.062 222.26 679.122 220.12 679.122 216.96V216.7C679.122 213.54 681.062 211.42 684.282 211.42C686.982 211.42 688.742 212.9 689.082 215.34H686.322C686.102 214.3 685.562 213.62 684.242 213.62C682.702 213.62 682.002 214.72 682.002 216.7V216.96C682.002 218.96 682.702 220.06 684.242 220.06C685.562 220.06 686.122 219.36 686.342 218.32H689.082C688.762 220.78 686.982 222.26 684.282 222.26ZM695.825 222.26C692.605 222.26 690.665 220.12 690.665 216.96V216.7C690.665 213.54 692.605 211.42 695.825 211.42C698.525 211.42 700.285 212.9 700.625 215.34H697.865C697.645 214.3 697.105 213.62 695.785 213.62C694.245 213.62 693.545 214.72 693.545 216.7V216.96C693.545 218.96 694.245 220.06 695.785 220.06C697.105 220.06 697.665 219.36 697.885 218.32H700.625C700.305 220.78 698.525 222.26 695.825 222.26ZM707.508 222.26C704.308 222.26 702.208 220.1 702.208 216.96V216.7C702.208 213.58 704.308 211.42 707.508 211.42C710.708 211.42 712.808 213.58 712.808 216.72V216.96C712.808 220.1 710.708 222.26 707.508 222.26ZM707.508 220.08C709.148 220.08 709.968 218.98 709.968 216.96V216.72C709.968 214.7 709.148 213.6 707.508 213.6C705.868 213.6 705.048 214.7 705.048 216.7V216.96C705.048 218.98 705.868 220.08 707.508 220.08ZM718.551 222.26C716.111 222.26 714.971 220.72 714.971 218.28V211.68H717.791V217.74C717.791 219.2 718.331 219.98 719.571 219.98C720.851 219.98 721.651 219.04 721.651 217.32V211.68H724.471V222H721.751L721.691 220.5C721.111 221.42 720.031 222.26 718.551 222.26ZM730.039 222H727.239V211.68H729.939L730.019 213.28C730.519 212.32 731.559 211.42 733.279 211.42C735.839 211.42 736.859 213.04 736.859 215.36V222H734.079V216.06C734.079 214.56 733.559 213.68 732.219 213.68C730.919 213.68 730.039 214.64 730.039 216.28V222ZM743.829 222.26C741.349 222.26 740.169 221.14 740.169 219.02V213.72H738.249V211.68H740.169V208.4H742.969V211.68H745.649V213.72H742.969V218.78C742.969 219.68 743.349 220.06 744.449 220.06C744.949 220.06 745.409 219.94 745.689 219.86V222.02C745.189 222.14 744.429 222.26 743.829 222.26Z" fill="#CCCCCC"/>
<line x1="464.5" y1="325.75" x2="817.5" y2="325.75" stroke="#A9A9A9" stroke-width="0.5"/>
<path d="M475.571 315H467.496V302.93H475.503V304.256H469.026V308.166H474.976V309.492H469.026V313.674H475.571V315ZM479.413 315H477.968V306.262H479.379L479.396 307.656C479.872 306.789 480.773 306.058 482.133 306.058C483.459 306.058 484.343 306.687 484.768 307.792C485.38 306.687 486.349 306.058 487.658 306.058C489.613 306.058 490.565 307.299 490.565 309.339V315H489.12V309.628C489.12 308.081 488.525 307.299 487.233 307.299C485.822 307.299 484.989 308.37 484.989 310.07V315H483.544V309.628C483.544 308.115 482.983 307.299 481.708 307.299C480.28 307.299 479.413 308.353 479.413 310.121V315ZM495.488 315.204C493.686 315.204 492.581 314.167 492.581 312.705C492.581 311.43 493.346 310.478 494.757 310.274L498.395 309.73V308.999C498.395 307.775 497.528 307.231 496.423 307.231C495.25 307.231 494.451 307.809 494.315 308.727H492.904C493.091 307.078 494.383 306.058 496.44 306.058C498.582 306.058 499.806 307.282 499.806 309.067V315H498.446L498.412 313.64C497.834 314.643 496.729 315.204 495.488 315.204ZM495.692 314.014C497.12 314.014 498.395 313.062 498.395 311.77V310.886L495.233 311.362C494.4 311.464 494.026 311.94 494.026 312.654C494.026 313.47 494.587 314.014 495.692 314.014ZM503.868 304.511H502.338V302.216H503.868V304.511ZM503.817 315H502.372V306.262H503.817V315ZM507.934 315H506.489V302.216H507.934V315Z" fill="#A9A9A9"/>
<rect x="544" y="394" width="193" height="34" rx="5" fill="url(#paint0_linear_889_4)"/>
<path d="M582.536 416H580.184V404.64H585.16C587.512 404.64 589.272 405.888 589.272 408.208V408.4C589.272 410.144 588.312 411.264 586.84 411.728L589.656 416H587.016L584.44 411.968H582.536V416ZM582.536 406.592V410.016H584.92C586.04 410.016 586.84 409.52 586.84 408.4V408.208C586.84 407.072 586.04 406.592 584.92 406.592H582.536ZM594.49 416.208C591.866 416.208 590.282 414.512 590.282 411.968V411.76C590.282 409.248 591.898 407.536 594.49 407.536C597.274 407.536 598.65 409.472 598.506 412.352H592.442C592.538 413.792 593.258 414.496 594.49 414.496C595.482 414.496 596.026 414.064 596.234 413.488H598.458C598.058 415.152 596.618 416.208 594.49 416.208ZM592.474 410.944H596.266C596.154 409.872 595.562 409.2 594.474 409.2C593.338 409.2 592.682 409.776 592.474 410.944ZM603.384 416.208C601.064 416.208 599.736 415.168 599.592 413.392H601.72C601.848 414.192 602.472 414.608 603.384 414.608C604.232 414.608 604.808 414.288 604.808 413.696C604.808 413.184 604.424 412.88 602.952 412.624C600.824 412.272 599.848 411.6 599.848 410.112C599.848 408.56 601.272 407.536 603.288 407.536C605.416 407.536 606.696 408.512 606.856 410.192H604.744C604.648 409.488 604.088 409.104 603.272 409.104C602.488 409.104 601.992 409.424 601.992 409.968C601.992 410.48 602.408 410.752 603.832 410.976C606.056 411.328 607 412.048 607 413.488C607 415.12 605.592 416.208 603.384 416.208ZM612.412 416.208C609.788 416.208 608.204 414.512 608.204 411.968V411.76C608.204 409.248 609.82 407.536 612.412 407.536C615.196 407.536 616.572 409.472 616.428 412.352H610.364C610.46 413.792 611.18 414.496 612.412 414.496C613.404 414.496 613.948 414.064 614.156 413.488H616.38C615.98 415.152 614.54 416.208 612.412 416.208ZM610.396 410.944H614.188C614.076 409.872 613.484 409.2 612.396 409.2C611.26 409.2 610.604 409.776 610.396 410.944ZM621.595 416.208C619.611 416.208 618.667 415.312 618.667 413.616V409.376H617.131V407.744H618.667V405.12H620.907V407.744H623.051V409.376H620.907V413.424C620.907 414.144 621.211 414.448 622.091 414.448C622.491 414.448 622.859 414.352 623.083 414.288V416.016C622.683 416.112 622.075 416.208 621.595 416.208ZM630.173 418.72H627.917V407.744H630.013L630.077 409.008C630.461 408.272 631.389 407.536 632.733 407.536C634.941 407.536 636.269 409.328 636.269 411.76V411.968C636.269 414.416 634.892 416.208 632.685 416.208C631.516 416.208 630.621 415.6 630.173 414.832V418.72ZM632.045 414.48C633.325 414.48 633.997 413.584 633.997 411.968V411.76C633.997 410.144 633.325 409.248 632.045 409.248C630.765 409.248 630.093 410.144 630.093 411.76V411.968C630.093 413.584 630.765 414.48 632.045 414.48ZM640.377 416.208C638.713 416.208 637.593 415.152 637.593 413.696C637.593 412.288 638.489 411.456 639.993 411.248L643.033 410.816V410.336C643.033 409.648 642.585 409.232 641.609 409.232C640.697 409.232 640.185 409.536 640.041 410.144H637.929C638.121 408.496 639.513 407.536 641.657 407.536C643.881 407.536 645.193 408.64 645.193 410.368V416H643.129L643.049 414.72C642.537 415.632 641.593 416.208 640.377 416.208ZM641.049 414.528C642.137 414.528 643.033 413.888 643.033 412.976V412.32L640.793 412.624C640.105 412.72 639.753 413.008 639.753 413.584C639.753 414.176 640.233 414.528 641.049 414.528ZM650.619 416.208C648.299 416.208 646.971 415.168 646.827 413.392H648.955C649.083 414.192 649.707 414.608 650.619 414.608C651.467 414.608 652.043 414.288 652.043 413.696C652.043 413.184 651.659 412.88 650.187 412.624C648.059 412.272 647.083 411.6 647.083 410.112C647.083 408.56 648.507 407.536 650.523 407.536C652.651 407.536 653.931 408.512 654.091 410.192H651.979C651.883 409.488 651.323 409.104 650.507 409.104C649.723 409.104 649.227 409.424 649.227 409.968C649.227 410.48 649.643 410.752 651.067 410.976C653.291 411.328 654.235 412.048 654.235 413.488C654.235 415.12 652.827 416.208 650.619 416.208ZM658.931 416.208C656.611 416.208 655.283 415.168 655.139 413.392H657.267C657.395 414.192 658.019 414.608 658.931 414.608C659.779 414.608 660.355 414.288 660.355 413.696C660.355 413.184 659.971 412.88 658.499 412.624C656.371 412.272 655.395 411.6 655.395 410.112C655.395 408.56 656.819 407.536 658.835 407.536C660.963 407.536 662.243 408.512 662.403 410.192H660.291C660.195 409.488 659.635 409.104 658.819 409.104C658.035 409.104 657.539 409.424 657.539 409.968C657.539 410.48 657.955 410.752 659.379 410.976C661.603 411.328 662.547 412.048 662.547 413.488C662.547 415.12 661.139 416.208 658.931 416.208ZM667.882 416H665.546L663.098 407.744H665.354L666.858 413.664L668.362 407.744H670.538L672.058 413.696L673.594 407.744H675.802L673.338 416H671.002L669.434 410.16L667.882 416ZM680.757 416.208C678.197 416.208 676.517 414.48 676.517 411.968V411.76C676.517 409.264 678.197 407.536 680.757 407.536C683.317 407.536 684.997 409.264 684.997 411.776V411.968C684.997 414.48 683.317 416.208 680.757 416.208ZM680.757 414.464C682.069 414.464 682.725 413.584 682.725 411.968V411.776C682.725 410.16 682.069 409.28 680.757 409.28C679.445 409.28 678.789 410.16 678.789 411.76V411.968C678.789 413.584 679.445 414.464 680.757 414.464ZM689.047 416H686.807V407.744H688.951L689.015 409.36C689.415 408.352 690.231 407.6 691.447 407.6C691.607 407.6 691.799 407.616 691.943 407.648V409.792C691.783 409.776 691.527 409.76 691.319 409.76C689.831 409.76 689.047 410.56 689.047 412.016V416ZM696.382 416.208C694.158 416.208 692.782 414.432 692.782 411.968V411.76C692.782 409.328 694.11 407.536 696.302 407.536C697.534 407.536 698.398 408.112 698.878 408.848V403.968H701.134V416H699.054L698.974 414.704C698.606 415.44 697.726 416.208 696.382 416.208ZM697.006 414.48C698.286 414.48 698.958 413.584 698.958 411.968V411.76C698.958 410.144 698.286 409.248 697.006 409.248C695.742 409.248 695.054 410.144 695.054 411.76V411.968C695.054 413.584 695.742 414.48 697.006 414.48Z" fill="#FEFEFE"/>
<path d="M612.09 505.162C609.471 505.162 607.716 503.245 607.716 500.383V500.018C607.716 497.197 609.457 495.253 612.076 495.253C614.209 495.253 615.654 496.508 615.978 498.304H614.736C614.371 497.089 613.44 496.333 612.063 496.333C610.132 496.333 608.971 497.845 608.971 500.018V500.383C608.971 502.556 610.159 504.082 612.09 504.082C613.642 504.082 614.533 503.11 614.79 501.962H616.045C615.708 503.717 614.344 505.162 612.09 505.162ZM620.475 505.162C618.45 505.162 617.154 503.771 617.154 501.652V501.409C617.154 499.289 618.45 497.899 620.475 497.899C622.5 497.899 623.782 499.289 623.782 501.409V501.652C623.782 503.771 622.5 505.162 620.475 505.162ZM620.475 504.19C621.852 504.19 622.608 503.258 622.608 501.652V501.409C622.608 499.802 621.852 498.871 620.475 498.871C619.084 498.871 618.328 499.802 618.328 501.409V501.652C618.328 503.258 619.084 504.19 620.475 504.19ZM626.642 505H625.495V498.061H626.615L626.642 499.195C627.047 498.452 627.776 497.899 628.883 497.899C630.544 497.899 631.286 498.925 631.286 500.518V505H630.152V500.801C630.152 499.559 629.68 498.898 628.559 498.898C627.412 498.898 626.642 499.721 626.642 501.085V505ZM635.854 505.162C634.463 505.162 633.734 504.527 633.734 503.245V498.979H632.344V498.061H633.734V495.928H634.882V498.061H636.853V498.979H634.882V503.083C634.882 503.839 635.125 504.203 636.029 504.203C636.299 504.203 636.664 504.136 636.893 504.068V505.027C636.61 505.095 636.178 505.162 635.854 505.162ZM640.305 505.162C638.874 505.162 637.996 504.338 637.996 503.177C637.996 502.165 638.604 501.409 639.724 501.247L642.613 500.815V500.234C642.613 499.262 641.925 498.83 641.047 498.83C640.116 498.83 639.481 499.289 639.373 500.018H638.253C638.401 498.709 639.427 497.899 641.061 497.899C642.762 497.899 643.734 498.871 643.734 500.288V505H642.654L642.627 503.92C642.168 504.716 641.29 505.162 640.305 505.162ZM640.467 504.217C641.601 504.217 642.613 503.461 642.613 502.435V501.733L640.102 502.111C639.441 502.192 639.144 502.57 639.144 503.137C639.144 503.785 639.589 504.217 640.467 504.217ZM648.62 505.162C646.554 505.162 645.38 503.717 645.38 501.652V501.409C645.38 499.33 646.554 497.899 648.633 497.899C650.321 497.899 651.387 498.844 651.603 500.275H650.456C650.253 499.397 649.686 498.871 648.606 498.871C647.283 498.871 646.568 499.802 646.568 501.409V501.652C646.568 503.272 647.283 504.19 648.62 504.19C649.686 504.19 650.294 503.623 650.496 502.759H651.644C651.36 504.23 650.294 505.162 648.62 505.162ZM655.879 505.162C654.489 505.162 653.76 504.527 653.76 503.245V498.979H652.369V498.061H653.76V495.928H654.907V498.061H656.878V498.979H654.907V503.083C654.907 503.839 655.15 504.203 656.055 504.203C656.325 504.203 656.689 504.136 656.919 504.068V505.027C656.635 505.095 656.203 505.162 655.879 505.162ZM663.729 505.162C662.136 505.162 661.353 504.163 661.353 502.529V498.061H662.514V502.313C662.514 503.474 662.946 504.176 664.08 504.176C665.241 504.176 665.902 503.272 665.902 501.949V498.061H667.05V505H665.929L665.916 503.906C665.497 504.635 664.755 505.162 663.729 505.162ZM671.602 505.162C669.928 505.162 668.835 504.365 668.686 502.88H669.793C669.955 503.825 670.59 504.244 671.616 504.244C672.574 504.244 673.209 503.866 673.209 503.123C673.209 502.489 672.75 502.178 671.373 501.935C669.766 501.652 668.943 501.152 668.943 499.91C668.943 498.709 669.996 497.899 671.494 497.899C673.06 497.899 674.073 498.668 674.208 500.032H673.087C672.966 499.235 672.372 498.817 671.494 498.817C670.63 498.817 670.063 499.208 670.063 499.856C670.063 500.491 670.468 500.774 671.818 501.004C673.452 501.274 674.356 501.8 674.356 503.016C674.356 504.325 673.236 505.162 671.602 505.162Z" fill="#CCCCCC"/>
<path d="M1235.13 29.3334C1226.76 29.3334 1219.98 35.676 1219.98 43.5C1219.98 51.3241 1226.76 57.6667 1235.13 57.6667C1238.02 57.6667 1240.73 56.9091 1243.02 55.5963C1235.28 54.9593 1229.21 48.8885 1229.21 41.4887C1229.21 36.3667 1232.12 31.8808 1236.48 29.3924C1236.04 29.3559 1235.59 29.3334 1235.13 29.3334Z" fill="url(#paint1_linear_889_4)"/>
<path d="M1231.5 43.5001C1231.5 42.4569 1232.4 41.6112 1233.52 41.6112C1234.64 41.6112 1235.54 42.4569 1235.54 43.5001C1235.54 44.5433 1234.64 45.389 1233.52 45.389C1232.4 45.389 1231.5 44.5433 1231.5 43.5001Z" fill="#D7DAFA"/>
</g>
<defs>
<linearGradient id="paint0_linear_889_4" x1="544" y1="428" x2="738.168" y2="403.115" gradientUnits="userSpaceOnUse">
<stop stop-color="#6A70FF"/>
<stop offset="1" stop-color="#3278FF"/>
</linearGradient>
<linearGradient id="paint1_linear_889_4" x1="1234.47" y1="58.0687" x2="1235.28" y2="28.8246" gradientUnits="userSpaceOnUse">
<stop stop-color="#515BB0"/>
<stop offset="1" stop-color="white"/>
</linearGradient>
<clipPath id="clip0_889_4">
<rect width="1280" height="665" fill="white"/>
</clipPath>
</defs>
</svg>
